G04 #@! TF.FileFunction,Copper,L1,Top,Signal*
%FSLAX46Y46*%
G04 Gerber Fmt 4.6, Leading zero omitted, Abs format (unit mm)*
G04 Created by KiCad (PCBNEW 4.0.7) date 05/10/18 06:31:36*
%MOMM*%
%LPD*%
G01*
G04 APERTURE LIST*
%ADD10C,0.100000*%
%ADD11R,0.750000X0.800000*%
%ADD12R,1.700000X1.700000*%
%ADD13O,1.700000X1.700000*%
%ADD14R,5.080000X1.500000*%
%ADD15R,3.800000X2.000000*%
%ADD16R,1.500000X2.000000*%
%ADD17R,1.500000X0.450000*%
%ADD18R,2.999740X1.198880*%
%ADD19C,0.600000*%
%ADD20C,1.080000*%
%ADD21C,0.250000*%
%ADD22C,0.300000*%
%ADD23C,1.000000*%
%ADD24C,0.254000*%
G04 APERTURE END LIST*
D10*
D11*
X120015000Y-88265000D03*
X120015000Y-86765000D03*
X140335000Y-90170000D03*
X140335000Y-91670000D03*
X130810000Y-90170000D03*
X130810000Y-91670000D03*
D12*
X114300000Y-83820000D03*
D13*
X114300000Y-86360000D03*
X114300000Y-88900000D03*
X114300000Y-91440000D03*
X114300000Y-93980000D03*
X114300000Y-96520000D03*
X114300000Y-99060000D03*
X114300000Y-101600000D03*
X114300000Y-104140000D03*
D12*
X130175000Y-80645000D03*
D13*
X127635000Y-80645000D03*
X125095000Y-80645000D03*
X122555000Y-80645000D03*
X120015000Y-80645000D03*
D14*
X140335000Y-103310000D03*
X140335000Y-94810000D03*
X140335000Y-99060000D03*
D15*
X135495000Y-84505000D03*
D16*
X135495000Y-90805000D03*
X137795000Y-90805000D03*
X133195000Y-90805000D03*
D17*
X122370000Y-86965000D03*
X122370000Y-87615000D03*
X122370000Y-88265000D03*
X122370000Y-88915000D03*
X122370000Y-89565000D03*
X122370000Y-90215000D03*
X122370000Y-90865000D03*
X122370000Y-91515000D03*
X128270000Y-91515000D03*
X128270000Y-90865000D03*
X128270000Y-90215000D03*
X128270000Y-89565000D03*
X128270000Y-88915000D03*
X128270000Y-88265000D03*
X128270000Y-87615000D03*
X128270000Y-86965000D03*
D18*
X118745000Y-95250000D03*
X118745000Y-97248980D03*
X118745000Y-99247960D03*
X118745000Y-101249480D03*
X118745000Y-103245920D03*
X118745000Y-105247440D03*
X118745000Y-107246420D03*
X118745000Y-109245400D03*
X133741160Y-109245400D03*
X133741160Y-107246420D03*
X133741160Y-105247440D03*
X133741160Y-103245920D03*
X133741160Y-101249480D03*
X133741160Y-99247960D03*
X133741160Y-97248980D03*
X133741160Y-95250000D03*
D19*
X140335000Y-85725000D03*
X130809994Y-88265000D03*
X109855000Y-95250000D03*
X109855000Y-101600000D03*
X115570000Y-109220000D03*
X123825000Y-108585000D03*
X129540000Y-108585000D03*
X116840000Y-93980000D03*
X119380000Y-92075000D03*
X125730000Y-90170000D03*
X117475000Y-87630000D03*
D20*
X137795000Y-105410000D03*
D19*
X128905000Y-104140000D03*
X115570000Y-106045000D03*
X124519620Y-88489633D03*
X116205000Y-98425000D03*
X126712613Y-91775767D03*
X116070378Y-99545368D03*
X125064989Y-94615000D03*
X116205000Y-100965000D03*
X131445000Y-95885000D03*
X130810000Y-82550000D03*
X131445000Y-94615000D03*
X128905000Y-82550000D03*
X130810000Y-104775000D03*
X126365014Y-81915000D03*
X131460010Y-103505000D03*
X127488033Y-82753780D03*
X121269990Y-95885000D03*
X124460000Y-87630000D03*
X123825000Y-88900000D03*
X121920000Y-93980000D03*
X121920000Y-101600000D03*
X124460000Y-101600000D03*
D21*
X140335000Y-90170000D02*
X140335000Y-85725000D01*
D22*
X130810000Y-88265006D02*
X130809994Y-88265000D01*
X130810000Y-90170000D02*
X130810000Y-88265006D01*
D21*
X109855000Y-101600000D02*
X109855000Y-95250000D01*
X118745000Y-109245400D02*
X115595400Y-109245400D01*
X115595400Y-109245400D02*
X115570000Y-109220000D01*
X123825000Y-108585000D02*
X119405400Y-108585000D01*
X119405400Y-108585000D02*
X118745000Y-109245400D01*
X133741160Y-107246420D02*
X130878580Y-107246420D01*
X130878580Y-107246420D02*
X129540000Y-108585000D01*
D22*
X116840000Y-93980000D02*
X117475000Y-93980000D01*
X117475000Y-93980000D02*
X118745000Y-95250000D01*
X122370000Y-91515000D02*
X119940000Y-91515000D01*
X119940000Y-91515000D02*
X119380000Y-92075000D01*
X122370000Y-91515000D02*
X124385000Y-91515000D01*
X124385000Y-91515000D02*
X125730000Y-90170000D01*
X120015000Y-88265000D02*
X118110000Y-88265000D01*
X118110000Y-88265000D02*
X117475000Y-87630000D01*
X140335000Y-103310000D02*
X140335000Y-104360000D01*
X140335000Y-104360000D02*
X139285000Y-105410000D01*
X139285000Y-105410000D02*
X137795000Y-105410000D01*
X130810000Y-91670000D02*
X130810000Y-91645000D01*
X124135000Y-85725000D02*
X122895000Y-86965000D01*
X129524986Y-86614984D02*
X128635002Y-85725000D01*
X129524986Y-90359986D02*
X129524986Y-86614984D01*
X122895000Y-86965000D02*
X122370000Y-86965000D01*
X128635002Y-85725000D02*
X124135000Y-85725000D01*
X130810000Y-91645000D02*
X129524986Y-90359986D01*
X133741160Y-101249480D02*
X134641590Y-101249480D01*
X134641590Y-101249480D02*
X135591031Y-100300039D01*
X135591031Y-100300039D02*
X135591031Y-92201031D01*
X135591031Y-92201031D02*
X135495000Y-92105000D01*
X135495000Y-92105000D02*
X135495000Y-90805000D01*
X122370000Y-86965000D02*
X120215000Y-86965000D01*
X120215000Y-86965000D02*
X120015000Y-86765000D01*
X134255000Y-93345000D02*
X133160000Y-93345000D01*
X133160000Y-93345000D02*
X131485000Y-91670000D01*
X131485000Y-91670000D02*
X130810000Y-91670000D01*
X135495000Y-92105000D02*
X134255000Y-93345000D01*
X137795000Y-90805000D02*
X139470000Y-90805000D01*
X139470000Y-90805000D02*
X140335000Y-91670000D01*
D23*
X114300000Y-83820000D02*
X129540000Y-83820000D01*
X129540000Y-83820000D02*
X133985000Y-88265000D01*
X133985000Y-88265000D02*
X137160000Y-88265000D01*
X137160000Y-88265000D02*
X137795000Y-88900000D01*
X137795000Y-88900000D02*
X137795000Y-90805000D01*
D22*
X128905000Y-104140000D02*
X128905000Y-103183690D01*
X128905000Y-103183690D02*
X132840730Y-99247960D01*
X132840730Y-99247960D02*
X133741160Y-99247960D01*
X112395000Y-104775000D02*
X113665000Y-106045000D01*
X113665000Y-106045000D02*
X115570000Y-106045000D01*
X112395000Y-92142919D02*
X112395000Y-104775000D01*
X114300000Y-91440000D02*
X113097919Y-91440000D01*
X113097919Y-91440000D02*
X112395000Y-92142919D01*
X114300000Y-93980000D02*
X118715000Y-89565000D01*
X118715000Y-89565000D02*
X122370000Y-89565000D01*
X118745000Y-97248980D02*
X115028980Y-97248980D01*
X115028980Y-97248980D02*
X114300000Y-96520000D01*
X124376635Y-88489633D02*
X124519620Y-88489633D01*
X124137001Y-88249999D02*
X124376635Y-88489633D01*
X123435001Y-88249999D02*
X124137001Y-88249999D01*
X123420000Y-88265000D02*
X123435001Y-88249999D01*
X122370000Y-88265000D02*
X123420000Y-88265000D01*
X114300000Y-99060000D02*
X115570000Y-99060000D01*
X115570000Y-99060000D02*
X116205000Y-98425000D01*
X128270000Y-91515000D02*
X126973380Y-91515000D01*
X126973380Y-91515000D02*
X126712613Y-91775767D01*
X114300000Y-101600000D02*
X116070378Y-99829622D01*
X116070378Y-99829622D02*
X116070378Y-99545368D01*
X124072996Y-90865000D02*
X125417998Y-89519998D01*
X126042002Y-89519998D02*
X126380002Y-89857998D01*
X126380002Y-89857998D02*
X126380002Y-90482002D01*
X122370000Y-90865000D02*
X124072996Y-90865000D01*
X125064989Y-94190736D02*
X125064989Y-94615000D01*
X125064989Y-91797015D02*
X125064989Y-94190736D01*
X125417998Y-89519998D02*
X126042002Y-89519998D01*
X126380002Y-90482002D02*
X125064989Y-91797015D01*
X114300000Y-104140000D02*
X116205000Y-102235000D01*
X116205000Y-102235000D02*
X116205000Y-100965000D01*
X131445000Y-95885000D02*
X132808980Y-97248980D01*
X132808980Y-97248980D02*
X133741160Y-97248980D01*
X130175000Y-80645000D02*
X130175000Y-81915000D01*
X130175000Y-81915000D02*
X130810000Y-82550000D01*
X131445000Y-94615000D02*
X133106160Y-94615000D01*
X133106160Y-94615000D02*
X133741160Y-95250000D01*
X127635000Y-80645000D02*
X127635000Y-81280000D01*
X127635000Y-81280000D02*
X128905000Y-82550000D01*
X130810000Y-104775000D02*
X133268720Y-104775000D01*
X133268720Y-104775000D02*
X133741160Y-105247440D01*
X125095000Y-80645000D02*
X126365000Y-81915000D01*
X126365000Y-81915000D02*
X126365014Y-81915000D01*
X131719090Y-103245920D02*
X131460010Y-103505000D01*
X133741160Y-103245920D02*
X131719090Y-103245920D01*
X127063769Y-82753780D02*
X127488033Y-82753780D01*
X124663780Y-82753780D02*
X127063769Y-82753780D01*
X122555000Y-80645000D02*
X124663780Y-82753780D01*
X118812919Y-80645000D02*
X120015000Y-80645000D01*
X115144998Y-80645000D02*
X118812919Y-80645000D01*
X111760000Y-84029998D02*
X115144998Y-80645000D01*
X111760000Y-104847122D02*
X111760000Y-84029998D01*
X114159298Y-107246420D02*
X111760000Y-104847122D01*
X118745000Y-107246420D02*
X114159298Y-107246420D01*
X133741160Y-109245400D02*
X135541030Y-109245400D01*
X135890000Y-108896430D02*
X135890000Y-101715000D01*
X135541030Y-109245400D02*
X135890000Y-108896430D01*
X138545000Y-99060000D02*
X140335000Y-99060000D01*
X135890000Y-101715000D02*
X138545000Y-99060000D01*
X119645430Y-99247960D02*
X121269990Y-97623400D01*
X121269990Y-97623400D02*
X121269990Y-96309264D01*
X118745000Y-99247960D02*
X119645430Y-99247960D01*
X121269990Y-96309264D02*
X121269990Y-95885000D01*
X124445000Y-87615000D02*
X124460000Y-87630000D01*
X122370000Y-87615000D02*
X124445000Y-87615000D01*
X123825000Y-88900000D02*
X122385000Y-88900000D01*
X122385000Y-88900000D02*
X122370000Y-88915000D01*
X118745000Y-101249480D02*
X119645430Y-101249480D01*
X119645430Y-101249480D02*
X121920000Y-98974910D01*
X121920000Y-98974910D02*
X121920000Y-93980000D01*
X121320000Y-90215000D02*
X122370000Y-90215000D01*
X120277996Y-90215000D02*
X121320000Y-90215000D01*
X118729998Y-92387002D02*
X118729998Y-91762998D01*
X119067998Y-92725002D02*
X118729998Y-92387002D01*
X121975000Y-92725002D02*
X119067998Y-92725002D01*
X123190000Y-93940002D02*
X121975000Y-92725002D01*
X123190000Y-101702870D02*
X123190000Y-93940002D01*
X119645430Y-105247440D02*
X123190000Y-101702870D01*
X118745000Y-105247440D02*
X119645430Y-105247440D01*
X118729998Y-91762998D02*
X120277996Y-90215000D01*
X124759999Y-101300001D02*
X124460000Y-101600000D01*
X125714999Y-100345001D02*
X124759999Y-101300001D01*
X125714999Y-91854127D02*
X125714999Y-100345001D01*
X128270000Y-90865000D02*
X126704126Y-90865000D01*
X126704126Y-90865000D02*
X125714999Y-91854127D01*
X121920000Y-101600000D02*
X120274080Y-103245920D01*
X120274080Y-103245920D02*
X118745000Y-103245920D01*
D24*
G36*
X142165000Y-101925000D02*
X140620750Y-101925000D01*
X140462000Y-102083750D01*
X140462000Y-103183000D01*
X140482000Y-103183000D01*
X140482000Y-103437000D01*
X140462000Y-103437000D01*
X140462000Y-104536250D01*
X140620750Y-104695000D01*
X142165000Y-104695000D01*
X142165000Y-107880069D01*
X141964512Y-108887993D01*
X141433183Y-109683183D01*
X140637993Y-110214512D01*
X139630069Y-110415000D01*
X135527634Y-110415000D01*
X135692471Y-110308930D01*
X135837461Y-110096730D01*
X135866367Y-109953987D01*
X136096109Y-109800479D01*
X136445079Y-109451509D01*
X136615245Y-109196837D01*
X136675000Y-108896430D01*
X136675000Y-108392619D01*
X137464613Y-108392619D01*
X137804155Y-109214372D01*
X138432321Y-109843636D01*
X139253481Y-110184611D01*
X140142619Y-110185387D01*
X140964372Y-109845845D01*
X141593636Y-109217679D01*
X141934611Y-108396519D01*
X141935387Y-107507381D01*
X141595845Y-106685628D01*
X140967679Y-106056364D01*
X140146519Y-105715389D01*
X139257381Y-105714613D01*
X138435628Y-106054155D01*
X137806364Y-106682321D01*
X137465389Y-107503481D01*
X137464613Y-108392619D01*
X136675000Y-108392619D01*
X136675000Y-103595750D01*
X137160000Y-103595750D01*
X137160000Y-104186309D01*
X137256673Y-104419698D01*
X137435301Y-104598327D01*
X137668690Y-104695000D01*
X140049250Y-104695000D01*
X140208000Y-104536250D01*
X140208000Y-103437000D01*
X137318750Y-103437000D01*
X137160000Y-103595750D01*
X136675000Y-103595750D01*
X136675000Y-102433691D01*
X137160000Y-102433691D01*
X137160000Y-103024250D01*
X137318750Y-103183000D01*
X140208000Y-103183000D01*
X140208000Y-102083750D01*
X140049250Y-101925000D01*
X137668690Y-101925000D01*
X137435301Y-102021673D01*
X137256673Y-102200302D01*
X137160000Y-102433691D01*
X136675000Y-102433691D01*
X136675000Y-102040158D01*
X138257718Y-100457440D01*
X142165000Y-100457440D01*
X142165000Y-101925000D01*
X142165000Y-101925000D01*
G37*
X142165000Y-101925000D02*
X140620750Y-101925000D01*
X140462000Y-102083750D01*
X140462000Y-103183000D01*
X140482000Y-103183000D01*
X140482000Y-103437000D01*
X140462000Y-103437000D01*
X140462000Y-104536250D01*
X140620750Y-104695000D01*
X142165000Y-104695000D01*
X142165000Y-107880069D01*
X141964512Y-108887993D01*
X141433183Y-109683183D01*
X140637993Y-110214512D01*
X139630069Y-110415000D01*
X135527634Y-110415000D01*
X135692471Y-110308930D01*
X135837461Y-110096730D01*
X135866367Y-109953987D01*
X136096109Y-109800479D01*
X136445079Y-109451509D01*
X136615245Y-109196837D01*
X136675000Y-108896430D01*
X136675000Y-108392619D01*
X137464613Y-108392619D01*
X137804155Y-109214372D01*
X138432321Y-109843636D01*
X139253481Y-110184611D01*
X140142619Y-110185387D01*
X140964372Y-109845845D01*
X141593636Y-109217679D01*
X141934611Y-108396519D01*
X141935387Y-107507381D01*
X141595845Y-106685628D01*
X140967679Y-106056364D01*
X140146519Y-105715389D01*
X139257381Y-105714613D01*
X138435628Y-106054155D01*
X137806364Y-106682321D01*
X137465389Y-107503481D01*
X137464613Y-108392619D01*
X136675000Y-108392619D01*
X136675000Y-103595750D01*
X137160000Y-103595750D01*
X137160000Y-104186309D01*
X137256673Y-104419698D01*
X137435301Y-104598327D01*
X137668690Y-104695000D01*
X140049250Y-104695000D01*
X140208000Y-104536250D01*
X140208000Y-103437000D01*
X137318750Y-103437000D01*
X137160000Y-103595750D01*
X136675000Y-103595750D01*
X136675000Y-102433691D01*
X137160000Y-102433691D01*
X137160000Y-103024250D01*
X137318750Y-103183000D01*
X140208000Y-103183000D01*
X140208000Y-102083750D01*
X140049250Y-101925000D01*
X137668690Y-101925000D01*
X137435301Y-102021673D01*
X137256673Y-102200302D01*
X137160000Y-102433691D01*
X136675000Y-102433691D01*
X136675000Y-102040158D01*
X138257718Y-100457440D01*
X142165000Y-100457440D01*
X142165000Y-101925000D01*
G36*
X141148816Y-77451809D02*
X141433183Y-77641817D01*
X141964512Y-78437007D01*
X142165000Y-79444931D01*
X142165000Y-93425000D01*
X140620750Y-93425000D01*
X140462000Y-93583750D01*
X140462000Y-94683000D01*
X140482000Y-94683000D01*
X140482000Y-94937000D01*
X140462000Y-94937000D01*
X140462000Y-96036250D01*
X140620750Y-96195000D01*
X142165000Y-96195000D01*
X142165000Y-97662560D01*
X137795000Y-97662560D01*
X137559683Y-97706838D01*
X137343559Y-97845910D01*
X137198569Y-98058110D01*
X137147560Y-98310000D01*
X137147560Y-99347282D01*
X136376031Y-100118811D01*
X136376031Y-95095750D01*
X137160000Y-95095750D01*
X137160000Y-95686309D01*
X137256673Y-95919698D01*
X137435301Y-96098327D01*
X137668690Y-96195000D01*
X140049250Y-96195000D01*
X140208000Y-96036250D01*
X140208000Y-94937000D01*
X137318750Y-94937000D01*
X137160000Y-95095750D01*
X136376031Y-95095750D01*
X136376031Y-93933691D01*
X137160000Y-93933691D01*
X137160000Y-94524250D01*
X137318750Y-94683000D01*
X140208000Y-94683000D01*
X140208000Y-93583750D01*
X140049250Y-93425000D01*
X137668690Y-93425000D01*
X137435301Y-93521673D01*
X137256673Y-93700302D01*
X137160000Y-93933691D01*
X136376031Y-93933691D01*
X136376031Y-92427785D01*
X136480317Y-92408162D01*
X136646477Y-92301241D01*
X136793110Y-92401431D01*
X137045000Y-92452440D01*
X138545000Y-92452440D01*
X138780317Y-92408162D01*
X138996441Y-92269090D01*
X139141431Y-92056890D01*
X139192440Y-91805000D01*
X139192440Y-91637598D01*
X139312560Y-91757718D01*
X139312560Y-92070000D01*
X139356838Y-92305317D01*
X139495910Y-92521441D01*
X139708110Y-92666431D01*
X139960000Y-92717440D01*
X140710000Y-92717440D01*
X140945317Y-92673162D01*
X141161441Y-92534090D01*
X141306431Y-92321890D01*
X141357440Y-92070000D01*
X141357440Y-91270000D01*
X141313162Y-91034683D01*
X141246671Y-90931354D01*
X141248327Y-90929698D01*
X141345000Y-90696309D01*
X141345000Y-90455750D01*
X141186250Y-90297000D01*
X140462000Y-90297000D01*
X140462000Y-90317000D01*
X140208000Y-90317000D01*
X140208000Y-90297000D01*
X140188000Y-90297000D01*
X140188000Y-90043000D01*
X140208000Y-90043000D01*
X140208000Y-89293750D01*
X140462000Y-89293750D01*
X140462000Y-90043000D01*
X141186250Y-90043000D01*
X141345000Y-89884250D01*
X141345000Y-89643691D01*
X141248327Y-89410302D01*
X141069699Y-89231673D01*
X140836310Y-89135000D01*
X140620750Y-89135000D01*
X140462000Y-89293750D01*
X140208000Y-89293750D01*
X140049250Y-89135000D01*
X139833690Y-89135000D01*
X139600301Y-89231673D01*
X139421673Y-89410302D01*
X139325000Y-89643691D01*
X139325000Y-89884250D01*
X139460750Y-90020000D01*
X139192440Y-90020000D01*
X139192440Y-89805000D01*
X139148162Y-89569683D01*
X139009090Y-89353559D01*
X138930000Y-89299519D01*
X138930000Y-88900000D01*
X138925208Y-88875910D01*
X138843604Y-88465655D01*
X138597566Y-88097434D01*
X137962566Y-87462434D01*
X137936224Y-87444833D01*
X137594346Y-87216397D01*
X137160000Y-87130000D01*
X134455132Y-87130000D01*
X133447754Y-86122622D01*
X133595000Y-86152440D01*
X137395000Y-86152440D01*
X137630317Y-86108162D01*
X137846441Y-85969090D01*
X137991431Y-85756890D01*
X138042440Y-85505000D01*
X138042440Y-83505000D01*
X137998162Y-83269683D01*
X137859090Y-83053559D01*
X137646890Y-82908569D01*
X137395000Y-82857560D01*
X133595000Y-82857560D01*
X133359683Y-82901838D01*
X133143559Y-83040910D01*
X132998569Y-83253110D01*
X132947560Y-83505000D01*
X132947560Y-85505000D01*
X132974777Y-85649645D01*
X130810133Y-83485001D01*
X130995167Y-83485162D01*
X131338943Y-83343117D01*
X131602192Y-83080327D01*
X131744838Y-82736799D01*
X131745162Y-82364833D01*
X131603117Y-82021057D01*
X131502779Y-81920543D01*
X131621431Y-81746890D01*
X131672440Y-81495000D01*
X131672440Y-79817619D01*
X137464613Y-79817619D01*
X137804155Y-80639372D01*
X138432321Y-81268636D01*
X139253481Y-81609611D01*
X140142619Y-81610387D01*
X140964372Y-81270845D01*
X141593636Y-80642679D01*
X141934611Y-79821519D01*
X141935387Y-78932381D01*
X141595845Y-78110628D01*
X140967679Y-77481364D01*
X140146519Y-77140389D01*
X139257381Y-77139613D01*
X138435628Y-77479155D01*
X137806364Y-78107321D01*
X137465389Y-78928481D01*
X137464613Y-79817619D01*
X131672440Y-79817619D01*
X131672440Y-79795000D01*
X131628162Y-79559683D01*
X131489090Y-79343559D01*
X131276890Y-79198569D01*
X131025000Y-79147560D01*
X129325000Y-79147560D01*
X129089683Y-79191838D01*
X128873559Y-79330910D01*
X128728569Y-79543110D01*
X128714914Y-79610541D01*
X128685054Y-79565853D01*
X128203285Y-79243946D01*
X127635000Y-79130907D01*
X127066715Y-79243946D01*
X126584946Y-79565853D01*
X126365000Y-79895026D01*
X126145054Y-79565853D01*
X125663285Y-79243946D01*
X125095000Y-79130907D01*
X124526715Y-79243946D01*
X124044946Y-79565853D01*
X123825000Y-79895026D01*
X123605054Y-79565853D01*
X123123285Y-79243946D01*
X122555000Y-79130907D01*
X121986715Y-79243946D01*
X121504946Y-79565853D01*
X121285000Y-79895026D01*
X121065054Y-79565853D01*
X120583285Y-79243946D01*
X120015000Y-79130907D01*
X119446715Y-79243946D01*
X118964946Y-79565853D01*
X118768404Y-79860000D01*
X115144998Y-79860000D01*
X114844591Y-79919755D01*
X114589919Y-80089921D01*
X111204921Y-83474919D01*
X111034755Y-83729591D01*
X110975000Y-84029998D01*
X110975000Y-104847122D01*
X111034755Y-105147529D01*
X111204921Y-105402201D01*
X111518062Y-105715342D01*
X110682381Y-105714613D01*
X109860628Y-106054155D01*
X109231364Y-106682321D01*
X108890389Y-107503481D01*
X108889613Y-108392619D01*
X109229155Y-109214372D01*
X109857321Y-109843636D01*
X110678481Y-110184611D01*
X111567619Y-110185387D01*
X112389372Y-109845845D01*
X113018636Y-109217679D01*
X113359611Y-108396519D01*
X113360343Y-107557623D01*
X113604219Y-107801499D01*
X113858892Y-107971665D01*
X114159298Y-108031420D01*
X116632606Y-108031420D01*
X116641968Y-108081177D01*
X116747651Y-108245413D01*
X116706803Y-108286261D01*
X116610130Y-108519650D01*
X116610130Y-108959650D01*
X116768880Y-109118400D01*
X118618000Y-109118400D01*
X118618000Y-109098400D01*
X118872000Y-109098400D01*
X118872000Y-109118400D01*
X120721120Y-109118400D01*
X120879870Y-108959650D01*
X120879870Y-108519650D01*
X120783197Y-108286261D01*
X120741195Y-108244260D01*
X120841301Y-108097750D01*
X120892310Y-107845860D01*
X120892310Y-106646980D01*
X120848032Y-106411663D01*
X120741078Y-106245452D01*
X120841301Y-106098770D01*
X120892310Y-105846880D01*
X120892310Y-105110718D01*
X123745079Y-102257949D01*
X123765362Y-102227594D01*
X123929673Y-102392192D01*
X124273201Y-102534838D01*
X124645167Y-102535162D01*
X124988943Y-102393117D01*
X125252192Y-102130327D01*
X125394838Y-101786799D01*
X125394848Y-101775310D01*
X126270078Y-100900080D01*
X126440244Y-100645408D01*
X126499999Y-100345001D01*
X126499999Y-92699886D01*
X126525814Y-92710605D01*
X126897780Y-92710929D01*
X127241556Y-92568884D01*
X127439622Y-92371163D01*
X127520000Y-92387440D01*
X129020000Y-92387440D01*
X129255317Y-92343162D01*
X129471441Y-92204090D01*
X129616431Y-91991890D01*
X129667440Y-91740000D01*
X129667440Y-91612598D01*
X129787560Y-91732718D01*
X129787560Y-92070000D01*
X129831838Y-92305317D01*
X129970910Y-92521441D01*
X130183110Y-92666431D01*
X130435000Y-92717440D01*
X131185000Y-92717440D01*
X131384705Y-92679863D01*
X132534842Y-93830000D01*
X131982506Y-93830000D01*
X131975327Y-93822808D01*
X131631799Y-93680162D01*
X131259833Y-93679838D01*
X130916057Y-93821883D01*
X130652808Y-94084673D01*
X130510162Y-94428201D01*
X130509838Y-94800167D01*
X130651883Y-95143943D01*
X130757710Y-95249954D01*
X130652808Y-95354673D01*
X130510162Y-95698201D01*
X130509838Y-96070167D01*
X130651883Y-96413943D01*
X130914673Y-96677192D01*
X131258201Y-96819838D01*
X131269690Y-96819848D01*
X131593850Y-97144008D01*
X131593850Y-97848420D01*
X131638128Y-98083737D01*
X131745082Y-98249948D01*
X131644859Y-98396630D01*
X131593850Y-98648520D01*
X131593850Y-99384682D01*
X128349921Y-102628611D01*
X128179755Y-102883283D01*
X128166500Y-102949921D01*
X128120000Y-103183690D01*
X128120000Y-103602494D01*
X128112808Y-103609673D01*
X127970162Y-103953201D01*
X127969838Y-104325167D01*
X128111883Y-104668943D01*
X128374673Y-104932192D01*
X128718201Y-105074838D01*
X129090167Y-105075162D01*
X129433943Y-104933117D01*
X129697192Y-104670327D01*
X129839838Y-104326799D01*
X129840162Y-103954833D01*
X129698117Y-103611057D01*
X129690000Y-103602926D01*
X129690000Y-103508848D01*
X131593850Y-101604998D01*
X131593850Y-101848920D01*
X131638128Y-102084237D01*
X131744240Y-102249140D01*
X131644859Y-102394590D01*
X131627747Y-102479089D01*
X131418684Y-102520675D01*
X131345014Y-102569899D01*
X131274843Y-102569838D01*
X130931067Y-102711883D01*
X130667818Y-102974673D01*
X130525172Y-103318201D01*
X130524848Y-103690167D01*
X130592253Y-103853300D01*
X130281057Y-103981883D01*
X130017808Y-104244673D01*
X129875162Y-104588201D01*
X129874838Y-104960167D01*
X130016883Y-105303943D01*
X130279673Y-105567192D01*
X130623201Y-105709838D01*
X130995167Y-105710162D01*
X131338943Y-105568117D01*
X131347074Y-105560000D01*
X131593850Y-105560000D01*
X131593850Y-105846880D01*
X131638128Y-106082197D01*
X131743811Y-106246433D01*
X131702963Y-106287281D01*
X131606290Y-106520670D01*
X131606290Y-106960670D01*
X131765040Y-107119420D01*
X133614160Y-107119420D01*
X133614160Y-107099420D01*
X133868160Y-107099420D01*
X133868160Y-107119420D01*
X133888160Y-107119420D01*
X133888160Y-107373420D01*
X133868160Y-107373420D01*
X133868160Y-107393420D01*
X133614160Y-107393420D01*
X133614160Y-107373420D01*
X131765040Y-107373420D01*
X131606290Y-107532170D01*
X131606290Y-107972170D01*
X131702963Y-108205559D01*
X131744965Y-108247560D01*
X131644859Y-108394070D01*
X131593850Y-108645960D01*
X131593850Y-109844840D01*
X131638128Y-110080157D01*
X131777200Y-110296281D01*
X131950951Y-110415000D01*
X120527716Y-110415000D01*
X120604568Y-110383167D01*
X120783197Y-110204539D01*
X120879870Y-109971150D01*
X120879870Y-109531150D01*
X120721120Y-109372400D01*
X118872000Y-109372400D01*
X118872000Y-109392400D01*
X118618000Y-109392400D01*
X118618000Y-109372400D01*
X116768880Y-109372400D01*
X116610130Y-109531150D01*
X116610130Y-109971150D01*
X116706803Y-110204539D01*
X116885432Y-110383167D01*
X116962284Y-110415000D01*
X111194931Y-110415000D01*
X110187007Y-110214512D01*
X109391817Y-109683183D01*
X108860488Y-108887993D01*
X108660000Y-107880069D01*
X108660000Y-79817619D01*
X108889613Y-79817619D01*
X109229155Y-80639372D01*
X109857321Y-81268636D01*
X110678481Y-81609611D01*
X111567619Y-81610387D01*
X112389372Y-81270845D01*
X113018636Y-80642679D01*
X113359611Y-79821519D01*
X113360387Y-78932381D01*
X113020845Y-78110628D01*
X112392679Y-77481364D01*
X111571519Y-77140389D01*
X110682381Y-77139613D01*
X109860628Y-77479155D01*
X109231364Y-78107321D01*
X108890389Y-78928481D01*
X108889613Y-79817619D01*
X108660000Y-79817619D01*
X108660000Y-79444931D01*
X108860488Y-78437007D01*
X109391817Y-77641817D01*
X109676184Y-77451809D01*
X111145610Y-76962000D01*
X139679390Y-76962000D01*
X141148816Y-77451809D01*
X141148816Y-77451809D01*
G37*
X141148816Y-77451809D02*
X141433183Y-77641817D01*
X141964512Y-78437007D01*
X142165000Y-79444931D01*
X142165000Y-93425000D01*
X140620750Y-93425000D01*
X140462000Y-93583750D01*
X140462000Y-94683000D01*
X140482000Y-94683000D01*
X140482000Y-94937000D01*
X140462000Y-94937000D01*
X140462000Y-96036250D01*
X140620750Y-96195000D01*
X142165000Y-96195000D01*
X142165000Y-97662560D01*
X137795000Y-97662560D01*
X137559683Y-97706838D01*
X137343559Y-97845910D01*
X137198569Y-98058110D01*
X137147560Y-98310000D01*
X137147560Y-99347282D01*
X136376031Y-100118811D01*
X136376031Y-95095750D01*
X137160000Y-95095750D01*
X137160000Y-95686309D01*
X137256673Y-95919698D01*
X137435301Y-96098327D01*
X137668690Y-96195000D01*
X140049250Y-96195000D01*
X140208000Y-96036250D01*
X140208000Y-94937000D01*
X137318750Y-94937000D01*
X137160000Y-95095750D01*
X136376031Y-95095750D01*
X136376031Y-93933691D01*
X137160000Y-93933691D01*
X137160000Y-94524250D01*
X137318750Y-94683000D01*
X140208000Y-94683000D01*
X140208000Y-93583750D01*
X140049250Y-93425000D01*
X137668690Y-93425000D01*
X137435301Y-93521673D01*
X137256673Y-93700302D01*
X137160000Y-93933691D01*
X136376031Y-93933691D01*
X136376031Y-92427785D01*
X136480317Y-92408162D01*
X136646477Y-92301241D01*
X136793110Y-92401431D01*
X137045000Y-92452440D01*
X138545000Y-92452440D01*
X138780317Y-92408162D01*
X138996441Y-92269090D01*
X139141431Y-92056890D01*
X139192440Y-91805000D01*
X139192440Y-91637598D01*
X139312560Y-91757718D01*
X139312560Y-92070000D01*
X139356838Y-92305317D01*
X139495910Y-92521441D01*
X139708110Y-92666431D01*
X139960000Y-92717440D01*
X140710000Y-92717440D01*
X140945317Y-92673162D01*
X141161441Y-92534090D01*
X141306431Y-92321890D01*
X141357440Y-92070000D01*
X141357440Y-91270000D01*
X141313162Y-91034683D01*
X141246671Y-90931354D01*
X141248327Y-90929698D01*
X141345000Y-90696309D01*
X141345000Y-90455750D01*
X141186250Y-90297000D01*
X140462000Y-90297000D01*
X140462000Y-90317000D01*
X140208000Y-90317000D01*
X140208000Y-90297000D01*
X140188000Y-90297000D01*
X140188000Y-90043000D01*
X140208000Y-90043000D01*
X140208000Y-89293750D01*
X140462000Y-89293750D01*
X140462000Y-90043000D01*
X141186250Y-90043000D01*
X141345000Y-89884250D01*
X141345000Y-89643691D01*
X141248327Y-89410302D01*
X141069699Y-89231673D01*
X140836310Y-89135000D01*
X140620750Y-89135000D01*
X140462000Y-89293750D01*
X140208000Y-89293750D01*
X140049250Y-89135000D01*
X139833690Y-89135000D01*
X139600301Y-89231673D01*
X139421673Y-89410302D01*
X139325000Y-89643691D01*
X139325000Y-89884250D01*
X139460750Y-90020000D01*
X139192440Y-90020000D01*
X139192440Y-89805000D01*
X139148162Y-89569683D01*
X139009090Y-89353559D01*
X138930000Y-89299519D01*
X138930000Y-88900000D01*
X138925208Y-88875910D01*
X138843604Y-88465655D01*
X138597566Y-88097434D01*
X137962566Y-87462434D01*
X137936224Y-87444833D01*
X137594346Y-87216397D01*
X137160000Y-87130000D01*
X134455132Y-87130000D01*
X133447754Y-86122622D01*
X133595000Y-86152440D01*
X137395000Y-86152440D01*
X137630317Y-86108162D01*
X137846441Y-85969090D01*
X137991431Y-85756890D01*
X138042440Y-85505000D01*
X138042440Y-83505000D01*
X137998162Y-83269683D01*
X137859090Y-83053559D01*
X137646890Y-82908569D01*
X137395000Y-82857560D01*
X133595000Y-82857560D01*
X133359683Y-82901838D01*
X133143559Y-83040910D01*
X132998569Y-83253110D01*
X132947560Y-83505000D01*
X132947560Y-85505000D01*
X132974777Y-85649645D01*
X130810133Y-83485001D01*
X130995167Y-83485162D01*
X131338943Y-83343117D01*
X131602192Y-83080327D01*
X131744838Y-82736799D01*
X131745162Y-82364833D01*
X131603117Y-82021057D01*
X131502779Y-81920543D01*
X131621431Y-81746890D01*
X131672440Y-81495000D01*
X131672440Y-79817619D01*
X137464613Y-79817619D01*
X137804155Y-80639372D01*
X138432321Y-81268636D01*
X139253481Y-81609611D01*
X140142619Y-81610387D01*
X140964372Y-81270845D01*
X141593636Y-80642679D01*
X141934611Y-79821519D01*
X141935387Y-78932381D01*
X141595845Y-78110628D01*
X140967679Y-77481364D01*
X140146519Y-77140389D01*
X139257381Y-77139613D01*
X138435628Y-77479155D01*
X137806364Y-78107321D01*
X137465389Y-78928481D01*
X137464613Y-79817619D01*
X131672440Y-79817619D01*
X131672440Y-79795000D01*
X131628162Y-79559683D01*
X131489090Y-79343559D01*
X131276890Y-79198569D01*
X131025000Y-79147560D01*
X129325000Y-79147560D01*
X129089683Y-79191838D01*
X128873559Y-79330910D01*
X128728569Y-79543110D01*
X128714914Y-79610541D01*
X128685054Y-79565853D01*
X128203285Y-79243946D01*
X127635000Y-79130907D01*
X127066715Y-79243946D01*
X126584946Y-79565853D01*
X126365000Y-79895026D01*
X126145054Y-79565853D01*
X125663285Y-79243946D01*
X125095000Y-79130907D01*
X124526715Y-79243946D01*
X124044946Y-79565853D01*
X123825000Y-79895026D01*
X123605054Y-79565853D01*
X123123285Y-79243946D01*
X122555000Y-79130907D01*
X121986715Y-79243946D01*
X121504946Y-79565853D01*
X121285000Y-79895026D01*
X121065054Y-79565853D01*
X120583285Y-79243946D01*
X120015000Y-79130907D01*
X119446715Y-79243946D01*
X118964946Y-79565853D01*
X118768404Y-79860000D01*
X115144998Y-79860000D01*
X114844591Y-79919755D01*
X114589919Y-80089921D01*
X111204921Y-83474919D01*
X111034755Y-83729591D01*
X110975000Y-84029998D01*
X110975000Y-104847122D01*
X111034755Y-105147529D01*
X111204921Y-105402201D01*
X111518062Y-105715342D01*
X110682381Y-105714613D01*
X109860628Y-106054155D01*
X109231364Y-106682321D01*
X108890389Y-107503481D01*
X108889613Y-108392619D01*
X109229155Y-109214372D01*
X109857321Y-109843636D01*
X110678481Y-110184611D01*
X111567619Y-110185387D01*
X112389372Y-109845845D01*
X113018636Y-109217679D01*
X113359611Y-108396519D01*
X113360343Y-107557623D01*
X113604219Y-107801499D01*
X113858892Y-107971665D01*
X114159298Y-108031420D01*
X116632606Y-108031420D01*
X116641968Y-108081177D01*
X116747651Y-108245413D01*
X116706803Y-108286261D01*
X116610130Y-108519650D01*
X116610130Y-108959650D01*
X116768880Y-109118400D01*
X118618000Y-109118400D01*
X118618000Y-109098400D01*
X118872000Y-109098400D01*
X118872000Y-109118400D01*
X120721120Y-109118400D01*
X120879870Y-108959650D01*
X120879870Y-108519650D01*
X120783197Y-108286261D01*
X120741195Y-108244260D01*
X120841301Y-108097750D01*
X120892310Y-107845860D01*
X120892310Y-106646980D01*
X120848032Y-106411663D01*
X120741078Y-106245452D01*
X120841301Y-106098770D01*
X120892310Y-105846880D01*
X120892310Y-105110718D01*
X123745079Y-102257949D01*
X123765362Y-102227594D01*
X123929673Y-102392192D01*
X124273201Y-102534838D01*
X124645167Y-102535162D01*
X124988943Y-102393117D01*
X125252192Y-102130327D01*
X125394838Y-101786799D01*
X125394848Y-101775310D01*
X126270078Y-100900080D01*
X126440244Y-100645408D01*
X126499999Y-100345001D01*
X126499999Y-92699886D01*
X126525814Y-92710605D01*
X126897780Y-92710929D01*
X127241556Y-92568884D01*
X127439622Y-92371163D01*
X127520000Y-92387440D01*
X129020000Y-92387440D01*
X129255317Y-92343162D01*
X129471441Y-92204090D01*
X129616431Y-91991890D01*
X129667440Y-91740000D01*
X129667440Y-91612598D01*
X129787560Y-91732718D01*
X129787560Y-92070000D01*
X129831838Y-92305317D01*
X129970910Y-92521441D01*
X130183110Y-92666431D01*
X130435000Y-92717440D01*
X131185000Y-92717440D01*
X131384705Y-92679863D01*
X132534842Y-93830000D01*
X131982506Y-93830000D01*
X131975327Y-93822808D01*
X131631799Y-93680162D01*
X131259833Y-93679838D01*
X130916057Y-93821883D01*
X130652808Y-94084673D01*
X130510162Y-94428201D01*
X130509838Y-94800167D01*
X130651883Y-95143943D01*
X130757710Y-95249954D01*
X130652808Y-95354673D01*
X130510162Y-95698201D01*
X130509838Y-96070167D01*
X130651883Y-96413943D01*
X130914673Y-96677192D01*
X131258201Y-96819838D01*
X131269690Y-96819848D01*
X131593850Y-97144008D01*
X131593850Y-97848420D01*
X131638128Y-98083737D01*
X131745082Y-98249948D01*
X131644859Y-98396630D01*
X131593850Y-98648520D01*
X131593850Y-99384682D01*
X128349921Y-102628611D01*
X128179755Y-102883283D01*
X128166500Y-102949921D01*
X128120000Y-103183690D01*
X128120000Y-103602494D01*
X128112808Y-103609673D01*
X127970162Y-103953201D01*
X127969838Y-104325167D01*
X128111883Y-104668943D01*
X128374673Y-104932192D01*
X128718201Y-105074838D01*
X129090167Y-105075162D01*
X129433943Y-104933117D01*
X129697192Y-104670327D01*
X129839838Y-104326799D01*
X129840162Y-103954833D01*
X129698117Y-103611057D01*
X129690000Y-103602926D01*
X129690000Y-103508848D01*
X131593850Y-101604998D01*
X131593850Y-101848920D01*
X131638128Y-102084237D01*
X131744240Y-102249140D01*
X131644859Y-102394590D01*
X131627747Y-102479089D01*
X131418684Y-102520675D01*
X131345014Y-102569899D01*
X131274843Y-102569838D01*
X130931067Y-102711883D01*
X130667818Y-102974673D01*
X130525172Y-103318201D01*
X130524848Y-103690167D01*
X130592253Y-103853300D01*
X130281057Y-103981883D01*
X130017808Y-104244673D01*
X129875162Y-104588201D01*
X129874838Y-104960167D01*
X130016883Y-105303943D01*
X130279673Y-105567192D01*
X130623201Y-105709838D01*
X130995167Y-105710162D01*
X131338943Y-105568117D01*
X131347074Y-105560000D01*
X131593850Y-105560000D01*
X131593850Y-105846880D01*
X131638128Y-106082197D01*
X131743811Y-106246433D01*
X131702963Y-106287281D01*
X131606290Y-106520670D01*
X131606290Y-106960670D01*
X131765040Y-107119420D01*
X133614160Y-107119420D01*
X133614160Y-107099420D01*
X133868160Y-107099420D01*
X133868160Y-107119420D01*
X133888160Y-107119420D01*
X133888160Y-107373420D01*
X133868160Y-107373420D01*
X133868160Y-107393420D01*
X133614160Y-107393420D01*
X133614160Y-107373420D01*
X131765040Y-107373420D01*
X131606290Y-107532170D01*
X131606290Y-107972170D01*
X131702963Y-108205559D01*
X131744965Y-108247560D01*
X131644859Y-108394070D01*
X131593850Y-108645960D01*
X131593850Y-109844840D01*
X131638128Y-110080157D01*
X131777200Y-110296281D01*
X131950951Y-110415000D01*
X120527716Y-110415000D01*
X120604568Y-110383167D01*
X120783197Y-110204539D01*
X120879870Y-109971150D01*
X120879870Y-109531150D01*
X120721120Y-109372400D01*
X118872000Y-109372400D01*
X118872000Y-109392400D01*
X118618000Y-109392400D01*
X118618000Y-109372400D01*
X116768880Y-109372400D01*
X116610130Y-109531150D01*
X116610130Y-109971150D01*
X116706803Y-110204539D01*
X116885432Y-110383167D01*
X116962284Y-110415000D01*
X111194931Y-110415000D01*
X110187007Y-110214512D01*
X109391817Y-109683183D01*
X108860488Y-108887993D01*
X108660000Y-107880069D01*
X108660000Y-79817619D01*
X108889613Y-79817619D01*
X109229155Y-80639372D01*
X109857321Y-81268636D01*
X110678481Y-81609611D01*
X111567619Y-81610387D01*
X112389372Y-81270845D01*
X113018636Y-80642679D01*
X113359611Y-79821519D01*
X113360387Y-78932381D01*
X113020845Y-78110628D01*
X112392679Y-77481364D01*
X111571519Y-77140389D01*
X110682381Y-77139613D01*
X109860628Y-77479155D01*
X109231364Y-78107321D01*
X108890389Y-78928481D01*
X108889613Y-79817619D01*
X108660000Y-79817619D01*
X108660000Y-79444931D01*
X108860488Y-78437007D01*
X109391817Y-77641817D01*
X109676184Y-77451809D01*
X111145610Y-76962000D01*
X139679390Y-76962000D01*
X141148816Y-77451809D01*
G36*
X118004753Y-91462591D02*
X117994328Y-91515000D01*
X117944998Y-91762998D01*
X117944998Y-92387002D01*
X118004753Y-92687409D01*
X118174919Y-92942081D01*
X118512919Y-93280081D01*
X118767591Y-93450247D01*
X119067998Y-93510002D01*
X121102757Y-93510002D01*
X120985162Y-93793201D01*
X120984838Y-94165167D01*
X121126883Y-94508943D01*
X121135000Y-94517074D01*
X121135000Y-94949882D01*
X121084823Y-94949838D01*
X120760116Y-95084004D01*
X120879870Y-94964250D01*
X120879870Y-94524250D01*
X120783197Y-94290861D01*
X120604568Y-94112233D01*
X120371179Y-94015560D01*
X119030750Y-94015560D01*
X118872000Y-94174310D01*
X118872000Y-95123000D01*
X118892000Y-95123000D01*
X118892000Y-95377000D01*
X118872000Y-95377000D01*
X118872000Y-95397000D01*
X118618000Y-95397000D01*
X118618000Y-95377000D01*
X116768880Y-95377000D01*
X116610130Y-95535750D01*
X116610130Y-95975750D01*
X116706803Y-96209139D01*
X116748805Y-96251140D01*
X116648699Y-96397650D01*
X116635267Y-96463980D01*
X115802950Y-96463980D01*
X115701054Y-95951715D01*
X115379147Y-95469946D01*
X115049974Y-95250000D01*
X115379147Y-95030054D01*
X115701054Y-94548285D01*
X115705834Y-94524250D01*
X116610130Y-94524250D01*
X116610130Y-94964250D01*
X116768880Y-95123000D01*
X118618000Y-95123000D01*
X118618000Y-94174310D01*
X118459250Y-94015560D01*
X117118821Y-94015560D01*
X116885432Y-94112233D01*
X116706803Y-94290861D01*
X116610130Y-94524250D01*
X115705834Y-94524250D01*
X115814093Y-93980000D01*
X115747076Y-93643082D01*
X118160179Y-91229979D01*
X118004753Y-91462591D01*
X118004753Y-91462591D01*
G37*
X118004753Y-91462591D02*
X117994328Y-91515000D01*
X117944998Y-91762998D01*
X117944998Y-92387002D01*
X118004753Y-92687409D01*
X118174919Y-92942081D01*
X118512919Y-93280081D01*
X118767591Y-93450247D01*
X119067998Y-93510002D01*
X121102757Y-93510002D01*
X120985162Y-93793201D01*
X120984838Y-94165167D01*
X121126883Y-94508943D01*
X121135000Y-94517074D01*
X121135000Y-94949882D01*
X121084823Y-94949838D01*
X120760116Y-95084004D01*
X120879870Y-94964250D01*
X120879870Y-94524250D01*
X120783197Y-94290861D01*
X120604568Y-94112233D01*
X120371179Y-94015560D01*
X119030750Y-94015560D01*
X118872000Y-94174310D01*
X118872000Y-95123000D01*
X118892000Y-95123000D01*
X118892000Y-95377000D01*
X118872000Y-95377000D01*
X118872000Y-95397000D01*
X118618000Y-95397000D01*
X118618000Y-95377000D01*
X116768880Y-95377000D01*
X116610130Y-95535750D01*
X116610130Y-95975750D01*
X116706803Y-96209139D01*
X116748805Y-96251140D01*
X116648699Y-96397650D01*
X116635267Y-96463980D01*
X115802950Y-96463980D01*
X115701054Y-95951715D01*
X115379147Y-95469946D01*
X115049974Y-95250000D01*
X115379147Y-95030054D01*
X115701054Y-94548285D01*
X115705834Y-94524250D01*
X116610130Y-94524250D01*
X116610130Y-94964250D01*
X116768880Y-95123000D01*
X118618000Y-95123000D01*
X118618000Y-94174310D01*
X118459250Y-94015560D01*
X117118821Y-94015560D01*
X116885432Y-94112233D01*
X116706803Y-94290861D01*
X116610130Y-94524250D01*
X115705834Y-94524250D01*
X115814093Y-93980000D01*
X115747076Y-93643082D01*
X118160179Y-91229979D01*
X118004753Y-91462591D01*
G36*
X112802560Y-84670000D02*
X112846838Y-84905317D01*
X112985910Y-85121441D01*
X113198110Y-85266431D01*
X113306107Y-85288301D01*
X113028355Y-85593076D01*
X112858524Y-86003110D01*
X112979845Y-86233000D01*
X114173000Y-86233000D01*
X114173000Y-86213000D01*
X114427000Y-86213000D01*
X114427000Y-86233000D01*
X115620155Y-86233000D01*
X115741476Y-86003110D01*
X115571645Y-85593076D01*
X115295499Y-85290063D01*
X115385317Y-85273162D01*
X115601441Y-85134090D01*
X115723808Y-84955000D01*
X124059591Y-84955000D01*
X123834594Y-84999755D01*
X123579921Y-85169921D01*
X122657282Y-86092560D01*
X121620000Y-86092560D01*
X121384683Y-86136838D01*
X121317607Y-86180000D01*
X121002630Y-86180000D01*
X120993162Y-86129683D01*
X120854090Y-85913559D01*
X120641890Y-85768569D01*
X120390000Y-85717560D01*
X119640000Y-85717560D01*
X119404683Y-85761838D01*
X119188559Y-85900910D01*
X119043569Y-86113110D01*
X118992560Y-86365000D01*
X118992560Y-87165000D01*
X119036838Y-87400317D01*
X119103329Y-87503646D01*
X119101673Y-87505302D01*
X119005000Y-87738691D01*
X119005000Y-87979250D01*
X119163750Y-88138000D01*
X119888000Y-88138000D01*
X119888000Y-88118000D01*
X120142000Y-88118000D01*
X120142000Y-88138000D01*
X120162000Y-88138000D01*
X120162000Y-88392000D01*
X120142000Y-88392000D01*
X120142000Y-88412000D01*
X119888000Y-88412000D01*
X119888000Y-88392000D01*
X119163750Y-88392000D01*
X119005000Y-88550750D01*
X119005000Y-88780000D01*
X118715000Y-88780000D01*
X118414594Y-88839755D01*
X118159921Y-89009921D01*
X115800115Y-91369727D01*
X115701054Y-90871715D01*
X115379147Y-90389946D01*
X115049974Y-90170000D01*
X115379147Y-89950054D01*
X115701054Y-89468285D01*
X115814093Y-88900000D01*
X115701054Y-88331715D01*
X115379147Y-87849946D01*
X115038447Y-87622298D01*
X115181358Y-87555183D01*
X115571645Y-87126924D01*
X115741476Y-86716890D01*
X115620155Y-86487000D01*
X114427000Y-86487000D01*
X114427000Y-86507000D01*
X114173000Y-86507000D01*
X114173000Y-86487000D01*
X112979845Y-86487000D01*
X112858524Y-86716890D01*
X113028355Y-87126924D01*
X113418642Y-87555183D01*
X113561553Y-87622298D01*
X113220853Y-87849946D01*
X112898946Y-88331715D01*
X112785907Y-88900000D01*
X112898946Y-89468285D01*
X113220853Y-89950054D01*
X113550026Y-90170000D01*
X113220853Y-90389946D01*
X113035447Y-90667426D01*
X112797513Y-90714755D01*
X112545000Y-90883478D01*
X112545000Y-84355156D01*
X112802560Y-84097596D01*
X112802560Y-84670000D01*
X112802560Y-84670000D01*
G37*
X112802560Y-84670000D02*
X112846838Y-84905317D01*
X112985910Y-85121441D01*
X113198110Y-85266431D01*
X113306107Y-85288301D01*
X113028355Y-85593076D01*
X112858524Y-86003110D01*
X112979845Y-86233000D01*
X114173000Y-86233000D01*
X114173000Y-86213000D01*
X114427000Y-86213000D01*
X114427000Y-86233000D01*
X115620155Y-86233000D01*
X115741476Y-86003110D01*
X115571645Y-85593076D01*
X115295499Y-85290063D01*
X115385317Y-85273162D01*
X115601441Y-85134090D01*
X115723808Y-84955000D01*
X124059591Y-84955000D01*
X123834594Y-84999755D01*
X123579921Y-85169921D01*
X122657282Y-86092560D01*
X121620000Y-86092560D01*
X121384683Y-86136838D01*
X121317607Y-86180000D01*
X121002630Y-86180000D01*
X120993162Y-86129683D01*
X120854090Y-85913559D01*
X120641890Y-85768569D01*
X120390000Y-85717560D01*
X119640000Y-85717560D01*
X119404683Y-85761838D01*
X119188559Y-85900910D01*
X119043569Y-86113110D01*
X118992560Y-86365000D01*
X118992560Y-87165000D01*
X119036838Y-87400317D01*
X119103329Y-87503646D01*
X119101673Y-87505302D01*
X119005000Y-87738691D01*
X119005000Y-87979250D01*
X119163750Y-88138000D01*
X119888000Y-88138000D01*
X119888000Y-88118000D01*
X120142000Y-88118000D01*
X120142000Y-88138000D01*
X120162000Y-88138000D01*
X120162000Y-88392000D01*
X120142000Y-88392000D01*
X120142000Y-88412000D01*
X119888000Y-88412000D01*
X119888000Y-88392000D01*
X119163750Y-88392000D01*
X119005000Y-88550750D01*
X119005000Y-88780000D01*
X118715000Y-88780000D01*
X118414594Y-88839755D01*
X118159921Y-89009921D01*
X115800115Y-91369727D01*
X115701054Y-90871715D01*
X115379147Y-90389946D01*
X115049974Y-90170000D01*
X115379147Y-89950054D01*
X115701054Y-89468285D01*
X115814093Y-88900000D01*
X115701054Y-88331715D01*
X115379147Y-87849946D01*
X115038447Y-87622298D01*
X115181358Y-87555183D01*
X115571645Y-87126924D01*
X115741476Y-86716890D01*
X115620155Y-86487000D01*
X114427000Y-86487000D01*
X114427000Y-86507000D01*
X114173000Y-86507000D01*
X114173000Y-86487000D01*
X112979845Y-86487000D01*
X112858524Y-86716890D01*
X113028355Y-87126924D01*
X113418642Y-87555183D01*
X113561553Y-87622298D01*
X113220853Y-87849946D01*
X112898946Y-88331715D01*
X112785907Y-88900000D01*
X112898946Y-89468285D01*
X113220853Y-89950054D01*
X113550026Y-90170000D01*
X113220853Y-90389946D01*
X113035447Y-90667426D01*
X112797513Y-90714755D01*
X112545000Y-90883478D01*
X112545000Y-84355156D01*
X112802560Y-84097596D01*
X112802560Y-84670000D01*
G36*
X133182434Y-89067566D02*
X133422666Y-89228084D01*
X133322000Y-89328750D01*
X133322000Y-90678000D01*
X133342000Y-90678000D01*
X133342000Y-90932000D01*
X133322000Y-90932000D01*
X133322000Y-90952000D01*
X133068000Y-90952000D01*
X133068000Y-90932000D01*
X131968750Y-90932000D01*
X131887667Y-91013083D01*
X131785407Y-90944755D01*
X131722205Y-90932183D01*
X131721671Y-90931354D01*
X131723327Y-90929698D01*
X131820000Y-90696309D01*
X131820000Y-90529250D01*
X131968750Y-90678000D01*
X133068000Y-90678000D01*
X133068000Y-89328750D01*
X132909250Y-89170000D01*
X132318690Y-89170000D01*
X132085301Y-89266673D01*
X131906673Y-89445302D01*
X131820000Y-89654549D01*
X131820000Y-89643691D01*
X131723327Y-89410302D01*
X131544699Y-89231673D01*
X131311310Y-89135000D01*
X131095750Y-89135000D01*
X130937000Y-89293750D01*
X130937000Y-90043000D01*
X130957000Y-90043000D01*
X130957000Y-90297000D01*
X130937000Y-90297000D01*
X130937000Y-90317000D01*
X130683000Y-90317000D01*
X130683000Y-90297000D01*
X130663000Y-90297000D01*
X130663000Y-90043000D01*
X130683000Y-90043000D01*
X130683000Y-89293750D01*
X130524250Y-89135000D01*
X130309986Y-89135000D01*
X130309986Y-86614984D01*
X130250231Y-86314578D01*
X130080065Y-86059905D01*
X129190081Y-85169921D01*
X128935409Y-84999755D01*
X128710412Y-84955000D01*
X129069868Y-84955000D01*
X133182434Y-89067566D01*
X133182434Y-89067566D01*
G37*
X133182434Y-89067566D02*
X133422666Y-89228084D01*
X133322000Y-89328750D01*
X133322000Y-90678000D01*
X133342000Y-90678000D01*
X133342000Y-90932000D01*
X133322000Y-90932000D01*
X133322000Y-90952000D01*
X133068000Y-90952000D01*
X133068000Y-90932000D01*
X131968750Y-90932000D01*
X131887667Y-91013083D01*
X131785407Y-90944755D01*
X131722205Y-90932183D01*
X131721671Y-90931354D01*
X131723327Y-90929698D01*
X131820000Y-90696309D01*
X131820000Y-90529250D01*
X131968750Y-90678000D01*
X133068000Y-90678000D01*
X133068000Y-89328750D01*
X132909250Y-89170000D01*
X132318690Y-89170000D01*
X132085301Y-89266673D01*
X131906673Y-89445302D01*
X131820000Y-89654549D01*
X131820000Y-89643691D01*
X131723327Y-89410302D01*
X131544699Y-89231673D01*
X131311310Y-89135000D01*
X131095750Y-89135000D01*
X130937000Y-89293750D01*
X130937000Y-90043000D01*
X130957000Y-90043000D01*
X130957000Y-90297000D01*
X130937000Y-90297000D01*
X130937000Y-90317000D01*
X130683000Y-90317000D01*
X130683000Y-90297000D01*
X130663000Y-90297000D01*
X130663000Y-90043000D01*
X130683000Y-90043000D01*
X130683000Y-89293750D01*
X130524250Y-89135000D01*
X130309986Y-89135000D01*
X130309986Y-86614984D01*
X130250231Y-86314578D01*
X130080065Y-86059905D01*
X129190081Y-85169921D01*
X128935409Y-84999755D01*
X128710412Y-84955000D01*
X129069868Y-84955000D01*
X133182434Y-89067566D01*
M02*
