G04 #@! TF.FileFunction,Copper,L2,Bot,Signal*
%FSLAX46Y46*%
G04 Gerber Fmt 4.6, Leading zero omitted, Abs format (unit mm)*
G04 Created by KiCad (PCBNEW 4.0.7) date 05/08/18 00:09:52*
%MOMM*%
%LPD*%
G01*
G04 APERTURE LIST*
%ADD10C,0.100000*%
%ADD11R,1.700000X1.700000*%
%ADD12O,1.700000X1.700000*%
%ADD13R,5.080000X1.500000*%
%ADD14C,0.600000*%
%ADD15C,1.080000*%
%ADD16C,0.300000*%
%ADD17C,0.254000*%
G04 APERTURE END LIST*
D10*
D11*
X114300000Y-83820000D03*
D12*
X114300000Y-86360000D03*
X114300000Y-88900000D03*
X114300000Y-91440000D03*
X114300000Y-93980000D03*
X114300000Y-96520000D03*
X114300000Y-99060000D03*
X114300000Y-101600000D03*
X114300000Y-104140000D03*
D11*
X130175000Y-80645000D03*
D12*
X127635000Y-80645000D03*
X125095000Y-80645000D03*
X122555000Y-80645000D03*
X120015000Y-80645000D03*
D13*
X140335000Y-103310000D03*
X140335000Y-94810000D03*
D14*
X109855000Y-102870000D03*
X109855000Y-87630000D03*
X109855000Y-95885000D03*
X140335000Y-85090000D03*
X129540000Y-108585000D03*
X125095000Y-108585000D03*
X133985000Y-80010000D03*
X116840000Y-88900000D03*
X116840000Y-93980000D03*
X119380000Y-92075000D03*
X130175000Y-88265000D03*
X125730000Y-90170000D03*
X117475000Y-87630000D03*
D15*
X137795000Y-105410000D03*
D14*
X128905000Y-104140000D03*
X115570000Y-106045000D03*
X124519620Y-88489633D03*
X116205000Y-98425000D03*
X126712613Y-91775767D03*
X116070378Y-99545368D03*
X125064989Y-94615000D03*
X116205000Y-100965000D03*
X131445000Y-95885000D03*
X130810000Y-82550000D03*
X131445000Y-94615000D03*
X128905000Y-82550000D03*
X130810000Y-104775000D03*
X126365014Y-81915000D03*
X131460010Y-103505000D03*
X127488033Y-82753780D03*
X121269990Y-95885000D03*
X124460000Y-87630000D03*
X123825000Y-88900000D03*
X121920000Y-93980000D03*
X121920000Y-101600000D03*
X124460000Y-101600000D03*
D16*
X119380000Y-92075000D02*
X118745000Y-92075000D01*
X118745000Y-92075000D02*
X116840000Y-93980000D01*
X130175000Y-88265000D02*
X128270000Y-90170000D01*
X128270000Y-90170000D02*
X125730000Y-90170000D01*
X126365000Y-106045000D02*
X127000000Y-106045000D01*
X127000000Y-106045000D02*
X128905000Y-104140000D01*
X115570000Y-106045000D02*
X126365000Y-106045000D01*
X123914977Y-89772027D02*
X124519620Y-89167384D01*
X123914977Y-94924147D02*
X123914977Y-89772027D01*
X120414124Y-98425000D02*
X123914977Y-94924147D01*
X124519620Y-89167384D02*
X124519620Y-88913897D01*
X124519620Y-88913897D02*
X124519620Y-88489633D01*
X116205000Y-98425000D02*
X120414124Y-98425000D01*
X124414988Y-95131258D02*
X124414988Y-94073392D01*
X126412614Y-92075766D02*
X126712613Y-91775767D01*
X124414988Y-94073392D02*
X126412614Y-92075766D01*
X116070378Y-99545368D02*
X120000878Y-99545368D01*
X120000878Y-99545368D02*
X124414988Y-95131258D01*
X125064989Y-95039264D02*
X125064989Y-94615000D01*
X125064989Y-95188379D02*
X125064989Y-95039264D01*
X119288368Y-100965000D02*
X125064989Y-95188379D01*
X116205000Y-100965000D02*
X119288368Y-100965000D01*
X133350000Y-86360000D02*
X133350000Y-93980000D01*
X133350000Y-93980000D02*
X131445000Y-95885000D01*
X130810000Y-83820000D02*
X133350000Y-86360000D01*
X130810000Y-82550000D02*
X130810000Y-83820000D01*
X132080000Y-86149264D02*
X132080000Y-93980000D01*
X131744999Y-94315001D02*
X131445000Y-94615000D01*
X128905000Y-82974264D02*
X132080000Y-86149264D01*
X132080000Y-93980000D02*
X131744999Y-94315001D01*
X128905000Y-82550000D02*
X128905000Y-82974264D01*
X130510001Y-104475001D02*
X130810000Y-104775000D01*
X130810000Y-93580874D02*
X130294987Y-94095887D01*
X130810000Y-88592002D02*
X130810000Y-93580874D01*
X130825001Y-88577001D02*
X130810000Y-88592002D01*
X126365014Y-81915000D02*
X126365014Y-82550014D01*
X130294987Y-94095887D02*
X130294988Y-95134114D01*
X130825001Y-87010001D02*
X130825001Y-88577001D01*
X126365014Y-82550014D02*
X130825001Y-87010001D01*
X130294988Y-104259988D02*
X130510001Y-104475001D01*
X130294988Y-95134114D02*
X130294988Y-104259988D01*
X131160011Y-103205001D02*
X131460010Y-103505000D01*
X130794998Y-102839988D02*
X131160011Y-103205001D01*
X130794998Y-94302998D02*
X130794998Y-102839988D01*
X131460010Y-93637986D02*
X130794998Y-94302998D01*
X131460010Y-86725757D02*
X131460010Y-93637986D01*
X127488033Y-82753780D02*
X131460010Y-86725757D01*
X121269990Y-90395746D02*
X121269990Y-95460736D01*
X124035736Y-87630000D02*
X121269990Y-90395746D01*
X124460000Y-87630000D02*
X124035736Y-87630000D01*
X121269990Y-95460736D02*
X121269990Y-95885000D01*
X123525001Y-89199999D02*
X123825000Y-88900000D01*
X122219999Y-90505001D02*
X123525001Y-89199999D01*
X122219999Y-93680001D02*
X122219999Y-90505001D01*
X121920000Y-93980000D02*
X122219999Y-93680001D01*
X124460000Y-101600000D02*
X121920000Y-101600000D01*
D17*
G36*
X141148816Y-77451809D02*
X141433183Y-77641817D01*
X141964512Y-78437007D01*
X142165000Y-79444931D01*
X142165000Y-93425000D01*
X140620750Y-93425000D01*
X140462000Y-93583750D01*
X140462000Y-94683000D01*
X140482000Y-94683000D01*
X140482000Y-94937000D01*
X140462000Y-94937000D01*
X140462000Y-96036250D01*
X140620750Y-96195000D01*
X142165000Y-96195000D01*
X142165000Y-101925000D01*
X140620750Y-101925000D01*
X140462000Y-102083750D01*
X140462000Y-103183000D01*
X140482000Y-103183000D01*
X140482000Y-103437000D01*
X140462000Y-103437000D01*
X140462000Y-104536250D01*
X140620750Y-104695000D01*
X142165000Y-104695000D01*
X142165000Y-107880069D01*
X141964512Y-108887993D01*
X141433183Y-109683183D01*
X140637993Y-110214512D01*
X139630069Y-110415000D01*
X111194931Y-110415000D01*
X110187007Y-110214512D01*
X109391817Y-109683183D01*
X108860488Y-108887993D01*
X108761953Y-108392619D01*
X108889613Y-108392619D01*
X109229155Y-109214372D01*
X109857321Y-109843636D01*
X110678481Y-110184611D01*
X111567619Y-110185387D01*
X112389372Y-109845845D01*
X113018636Y-109217679D01*
X113359611Y-108396519D01*
X113359614Y-108392619D01*
X137464613Y-108392619D01*
X137804155Y-109214372D01*
X138432321Y-109843636D01*
X139253481Y-110184611D01*
X140142619Y-110185387D01*
X140964372Y-109845845D01*
X141593636Y-109217679D01*
X141934611Y-108396519D01*
X141935387Y-107507381D01*
X141595845Y-106685628D01*
X140967679Y-106056364D01*
X140146519Y-105715389D01*
X139257381Y-105714613D01*
X138435628Y-106054155D01*
X137806364Y-106682321D01*
X137465389Y-107503481D01*
X137464613Y-108392619D01*
X113359614Y-108392619D01*
X113360387Y-107507381D01*
X113020845Y-106685628D01*
X112392679Y-106056364D01*
X111571519Y-105715389D01*
X110682381Y-105714613D01*
X109860628Y-106054155D01*
X109231364Y-106682321D01*
X108890389Y-107503481D01*
X108889613Y-108392619D01*
X108761953Y-108392619D01*
X108660000Y-107880069D01*
X108660000Y-88900000D01*
X112785907Y-88900000D01*
X112898946Y-89468285D01*
X113220853Y-89950054D01*
X113550026Y-90170000D01*
X113220853Y-90389946D01*
X112898946Y-90871715D01*
X112785907Y-91440000D01*
X112898946Y-92008285D01*
X113220853Y-92490054D01*
X113550026Y-92710000D01*
X113220853Y-92929946D01*
X112898946Y-93411715D01*
X112785907Y-93980000D01*
X112898946Y-94548285D01*
X113220853Y-95030054D01*
X113550026Y-95250000D01*
X113220853Y-95469946D01*
X112898946Y-95951715D01*
X112785907Y-96520000D01*
X112898946Y-97088285D01*
X113220853Y-97570054D01*
X113550026Y-97790000D01*
X113220853Y-98009946D01*
X112898946Y-98491715D01*
X112785907Y-99060000D01*
X112898946Y-99628285D01*
X113220853Y-100110054D01*
X113550026Y-100330000D01*
X113220853Y-100549946D01*
X112898946Y-101031715D01*
X112785907Y-101600000D01*
X112898946Y-102168285D01*
X113220853Y-102650054D01*
X113550026Y-102870000D01*
X113220853Y-103089946D01*
X112898946Y-103571715D01*
X112785907Y-104140000D01*
X112898946Y-104708285D01*
X113220853Y-105190054D01*
X113702622Y-105511961D01*
X114270907Y-105625000D01*
X114329093Y-105625000D01*
X114768270Y-105537642D01*
X114635162Y-105858201D01*
X114634838Y-106230167D01*
X114776883Y-106573943D01*
X115039673Y-106837192D01*
X115383201Y-106979838D01*
X115755167Y-106980162D01*
X116098943Y-106838117D01*
X116107074Y-106830000D01*
X127000000Y-106830000D01*
X127300407Y-106770245D01*
X127555079Y-106600079D01*
X129080005Y-105075153D01*
X129090167Y-105075162D01*
X129433943Y-104933117D01*
X129664802Y-104702661D01*
X129739909Y-104815067D01*
X129874847Y-104950005D01*
X129874838Y-104960167D01*
X130016883Y-105303943D01*
X130279673Y-105567192D01*
X130623201Y-105709838D01*
X130995167Y-105710162D01*
X131338943Y-105568117D01*
X131602192Y-105305327D01*
X131744838Y-104961799D01*
X131745162Y-104589833D01*
X131677757Y-104426700D01*
X131988953Y-104298117D01*
X132252202Y-104035327D01*
X132394848Y-103691799D01*
X132394931Y-103595750D01*
X137160000Y-103595750D01*
X137160000Y-104186309D01*
X137256673Y-104419698D01*
X137435301Y-104598327D01*
X137668690Y-104695000D01*
X140049250Y-104695000D01*
X140208000Y-104536250D01*
X140208000Y-103437000D01*
X137318750Y-103437000D01*
X137160000Y-103595750D01*
X132394931Y-103595750D01*
X132395172Y-103319833D01*
X132253127Y-102976057D01*
X131990337Y-102712808D01*
X131646809Y-102570162D01*
X131635320Y-102570152D01*
X131579998Y-102514830D01*
X131579998Y-102433691D01*
X137160000Y-102433691D01*
X137160000Y-103024250D01*
X137318750Y-103183000D01*
X140208000Y-103183000D01*
X140208000Y-102083750D01*
X140049250Y-101925000D01*
X137668690Y-101925000D01*
X137435301Y-102021673D01*
X137256673Y-102200302D01*
X137160000Y-102433691D01*
X131579998Y-102433691D01*
X131579998Y-96820118D01*
X131630167Y-96820162D01*
X131973943Y-96678117D01*
X132237192Y-96415327D01*
X132379838Y-96071799D01*
X132379848Y-96060310D01*
X133344408Y-95095750D01*
X137160000Y-95095750D01*
X137160000Y-95686309D01*
X137256673Y-95919698D01*
X137435301Y-96098327D01*
X137668690Y-96195000D01*
X140049250Y-96195000D01*
X140208000Y-96036250D01*
X140208000Y-94937000D01*
X137318750Y-94937000D01*
X137160000Y-95095750D01*
X133344408Y-95095750D01*
X133905079Y-94535079D01*
X134075245Y-94280406D01*
X134135000Y-93980000D01*
X134135000Y-93933691D01*
X137160000Y-93933691D01*
X137160000Y-94524250D01*
X137318750Y-94683000D01*
X140208000Y-94683000D01*
X140208000Y-93583750D01*
X140049250Y-93425000D01*
X137668690Y-93425000D01*
X137435301Y-93521673D01*
X137256673Y-93700302D01*
X137160000Y-93933691D01*
X134135000Y-93933691D01*
X134135000Y-86360000D01*
X134075245Y-86059594D01*
X133905079Y-85804921D01*
X131595000Y-83494842D01*
X131595000Y-83087506D01*
X131602192Y-83080327D01*
X131744838Y-82736799D01*
X131745162Y-82364833D01*
X131603117Y-82021057D01*
X131502779Y-81920543D01*
X131621431Y-81746890D01*
X131672440Y-81495000D01*
X131672440Y-79817619D01*
X137464613Y-79817619D01*
X137804155Y-80639372D01*
X138432321Y-81268636D01*
X139253481Y-81609611D01*
X140142619Y-81610387D01*
X140964372Y-81270845D01*
X141593636Y-80642679D01*
X141934611Y-79821519D01*
X141935387Y-78932381D01*
X141595845Y-78110628D01*
X140967679Y-77481364D01*
X140146519Y-77140389D01*
X139257381Y-77139613D01*
X138435628Y-77479155D01*
X137806364Y-78107321D01*
X137465389Y-78928481D01*
X137464613Y-79817619D01*
X131672440Y-79817619D01*
X131672440Y-79795000D01*
X131628162Y-79559683D01*
X131489090Y-79343559D01*
X131276890Y-79198569D01*
X131025000Y-79147560D01*
X129325000Y-79147560D01*
X129089683Y-79191838D01*
X128873559Y-79330910D01*
X128728569Y-79543110D01*
X128714914Y-79610541D01*
X128685054Y-79565853D01*
X128203285Y-79243946D01*
X127635000Y-79130907D01*
X127066715Y-79243946D01*
X126584946Y-79565853D01*
X126365000Y-79895026D01*
X126145054Y-79565853D01*
X125663285Y-79243946D01*
X125095000Y-79130907D01*
X124526715Y-79243946D01*
X124044946Y-79565853D01*
X123825000Y-79895026D01*
X123605054Y-79565853D01*
X123123285Y-79243946D01*
X122555000Y-79130907D01*
X121986715Y-79243946D01*
X121504946Y-79565853D01*
X121285000Y-79895026D01*
X121065054Y-79565853D01*
X120583285Y-79243946D01*
X120015000Y-79130907D01*
X119446715Y-79243946D01*
X118964946Y-79565853D01*
X118643039Y-80047622D01*
X118530000Y-80615907D01*
X118530000Y-80674093D01*
X118643039Y-81242378D01*
X118964946Y-81724147D01*
X119446715Y-82046054D01*
X120015000Y-82159093D01*
X120583285Y-82046054D01*
X121065054Y-81724147D01*
X121285000Y-81394974D01*
X121504946Y-81724147D01*
X121986715Y-82046054D01*
X122555000Y-82159093D01*
X123123285Y-82046054D01*
X123605054Y-81724147D01*
X123825000Y-81394974D01*
X124044946Y-81724147D01*
X124526715Y-82046054D01*
X125095000Y-82159093D01*
X125429859Y-82092485D01*
X125429852Y-82100167D01*
X125571897Y-82443943D01*
X125580014Y-82452074D01*
X125580014Y-82550014D01*
X125639769Y-82850421D01*
X125809935Y-83105093D01*
X130025000Y-87320157D01*
X130025000Y-93255716D01*
X129739908Y-93540808D01*
X129569742Y-93795480D01*
X129509987Y-94095886D01*
X129509987Y-94095888D01*
X129509988Y-95134113D01*
X129509988Y-103422599D01*
X129435327Y-103347808D01*
X129091799Y-103205162D01*
X128719833Y-103204838D01*
X128376057Y-103346883D01*
X128112808Y-103609673D01*
X127970162Y-103953201D01*
X127970152Y-103964690D01*
X126674842Y-105260000D01*
X116107506Y-105260000D01*
X116100327Y-105252808D01*
X115756799Y-105110162D01*
X115432718Y-105109880D01*
X115701054Y-104708285D01*
X115814093Y-104140000D01*
X115701054Y-103571715D01*
X115379147Y-103089946D01*
X115049974Y-102870000D01*
X115379147Y-102650054D01*
X115701054Y-102168285D01*
X115774574Y-101798675D01*
X116018201Y-101899838D01*
X116390167Y-101900162D01*
X116668476Y-101785167D01*
X120984838Y-101785167D01*
X121126883Y-102128943D01*
X121389673Y-102392192D01*
X121733201Y-102534838D01*
X122105167Y-102535162D01*
X122448943Y-102393117D01*
X122457074Y-102385000D01*
X123922494Y-102385000D01*
X123929673Y-102392192D01*
X124273201Y-102534838D01*
X124645167Y-102535162D01*
X124988943Y-102393117D01*
X125252192Y-102130327D01*
X125394838Y-101786799D01*
X125395162Y-101414833D01*
X125253117Y-101071057D01*
X124990327Y-100807808D01*
X124646799Y-100665162D01*
X124274833Y-100664838D01*
X123931057Y-100806883D01*
X123922926Y-100815000D01*
X122457506Y-100815000D01*
X122450327Y-100807808D01*
X122106799Y-100665162D01*
X121734833Y-100664838D01*
X121391057Y-100806883D01*
X121127808Y-101069673D01*
X120985162Y-101413201D01*
X120984838Y-101785167D01*
X116668476Y-101785167D01*
X116733943Y-101758117D01*
X116742074Y-101750000D01*
X119288368Y-101750000D01*
X119588775Y-101690245D01*
X119843447Y-101520079D01*
X125620068Y-95743458D01*
X125790234Y-95488785D01*
X125849989Y-95188379D01*
X125849989Y-95152506D01*
X125857181Y-95145327D01*
X125999827Y-94801799D01*
X126000151Y-94429833D01*
X125858106Y-94086057D01*
X125595316Y-93822808D01*
X125251788Y-93680162D01*
X125235011Y-93680147D01*
X126540005Y-92375153D01*
X126550167Y-92375162D01*
X126893943Y-92233117D01*
X127157192Y-91970327D01*
X127299838Y-91626799D01*
X127300162Y-91254833D01*
X127158117Y-90911057D01*
X126895327Y-90647808D01*
X126551799Y-90505162D01*
X126179833Y-90504838D01*
X125836057Y-90646883D01*
X125572808Y-90909673D01*
X125430162Y-91253201D01*
X125430152Y-91264690D01*
X124699977Y-91994865D01*
X124699977Y-90097185D01*
X125074699Y-89722463D01*
X125244865Y-89467791D01*
X125304620Y-89167384D01*
X125304620Y-89027139D01*
X125311812Y-89019960D01*
X125454458Y-88676432D01*
X125454782Y-88304466D01*
X125323885Y-87987671D01*
X125394838Y-87816799D01*
X125395162Y-87444833D01*
X125253117Y-87101057D01*
X124990327Y-86837808D01*
X124646799Y-86695162D01*
X124274833Y-86694838D01*
X123931057Y-86836883D01*
X123894854Y-86873023D01*
X123735330Y-86904755D01*
X123480657Y-87074921D01*
X123480655Y-87074924D01*
X120714911Y-89840667D01*
X120544745Y-90095339D01*
X120544745Y-90095340D01*
X120484990Y-90395746D01*
X120484990Y-95347494D01*
X120477798Y-95354673D01*
X120335152Y-95698201D01*
X120334828Y-96070167D01*
X120476873Y-96413943D01*
X120739663Y-96677192D01*
X120960199Y-96768767D01*
X120088966Y-97640000D01*
X116742506Y-97640000D01*
X116735327Y-97632808D01*
X116391799Y-97490162D01*
X116019833Y-97489838D01*
X115676057Y-97631883D01*
X115412808Y-97894673D01*
X115368027Y-98002516D01*
X115049974Y-97790000D01*
X115379147Y-97570054D01*
X115701054Y-97088285D01*
X115814093Y-96520000D01*
X115701054Y-95951715D01*
X115379147Y-95469946D01*
X115049974Y-95250000D01*
X115379147Y-95030054D01*
X115701054Y-94548285D01*
X115814093Y-93980000D01*
X115701054Y-93411715D01*
X115379147Y-92929946D01*
X115049974Y-92710000D01*
X115379147Y-92490054D01*
X115701054Y-92008285D01*
X115814093Y-91440000D01*
X115701054Y-90871715D01*
X115379147Y-90389946D01*
X115049974Y-90170000D01*
X115379147Y-89950054D01*
X115701054Y-89468285D01*
X115814093Y-88900000D01*
X115701054Y-88331715D01*
X115379147Y-87849946D01*
X115038447Y-87622298D01*
X115181358Y-87555183D01*
X115571645Y-87126924D01*
X115741476Y-86716890D01*
X115620155Y-86487000D01*
X114427000Y-86487000D01*
X114427000Y-86507000D01*
X114173000Y-86507000D01*
X114173000Y-86487000D01*
X112979845Y-86487000D01*
X112858524Y-86716890D01*
X113028355Y-87126924D01*
X113418642Y-87555183D01*
X113561553Y-87622298D01*
X113220853Y-87849946D01*
X112898946Y-88331715D01*
X112785907Y-88900000D01*
X108660000Y-88900000D01*
X108660000Y-82970000D01*
X112802560Y-82970000D01*
X112802560Y-84670000D01*
X112846838Y-84905317D01*
X112985910Y-85121441D01*
X113198110Y-85266431D01*
X113306107Y-85288301D01*
X113028355Y-85593076D01*
X112858524Y-86003110D01*
X112979845Y-86233000D01*
X114173000Y-86233000D01*
X114173000Y-86213000D01*
X114427000Y-86213000D01*
X114427000Y-86233000D01*
X115620155Y-86233000D01*
X115741476Y-86003110D01*
X115571645Y-85593076D01*
X115295499Y-85290063D01*
X115385317Y-85273162D01*
X115601441Y-85134090D01*
X115746431Y-84921890D01*
X115797440Y-84670000D01*
X115797440Y-82970000D01*
X115753162Y-82734683D01*
X115614090Y-82518559D01*
X115401890Y-82373569D01*
X115150000Y-82322560D01*
X113450000Y-82322560D01*
X113214683Y-82366838D01*
X112998559Y-82505910D01*
X112853569Y-82718110D01*
X112802560Y-82970000D01*
X108660000Y-82970000D01*
X108660000Y-79817619D01*
X108889613Y-79817619D01*
X109229155Y-80639372D01*
X109857321Y-81268636D01*
X110678481Y-81609611D01*
X111567619Y-81610387D01*
X112389372Y-81270845D01*
X113018636Y-80642679D01*
X113359611Y-79821519D01*
X113360387Y-78932381D01*
X113020845Y-78110628D01*
X112392679Y-77481364D01*
X111571519Y-77140389D01*
X110682381Y-77139613D01*
X109860628Y-77479155D01*
X109231364Y-78107321D01*
X108890389Y-78928481D01*
X108889613Y-79817619D01*
X108660000Y-79817619D01*
X108660000Y-79444931D01*
X108860488Y-78437007D01*
X109391817Y-77641817D01*
X109676184Y-77451809D01*
X111145610Y-76962000D01*
X139679390Y-76962000D01*
X141148816Y-77451809D01*
X141148816Y-77451809D01*
G37*
X141148816Y-77451809D02*
X141433183Y-77641817D01*
X141964512Y-78437007D01*
X142165000Y-79444931D01*
X142165000Y-93425000D01*
X140620750Y-93425000D01*
X140462000Y-93583750D01*
X140462000Y-94683000D01*
X140482000Y-94683000D01*
X140482000Y-94937000D01*
X140462000Y-94937000D01*
X140462000Y-96036250D01*
X140620750Y-96195000D01*
X142165000Y-96195000D01*
X142165000Y-101925000D01*
X140620750Y-101925000D01*
X140462000Y-102083750D01*
X140462000Y-103183000D01*
X140482000Y-103183000D01*
X140482000Y-103437000D01*
X140462000Y-103437000D01*
X140462000Y-104536250D01*
X140620750Y-104695000D01*
X142165000Y-104695000D01*
X142165000Y-107880069D01*
X141964512Y-108887993D01*
X141433183Y-109683183D01*
X140637993Y-110214512D01*
X139630069Y-110415000D01*
X111194931Y-110415000D01*
X110187007Y-110214512D01*
X109391817Y-109683183D01*
X108860488Y-108887993D01*
X108761953Y-108392619D01*
X108889613Y-108392619D01*
X109229155Y-109214372D01*
X109857321Y-109843636D01*
X110678481Y-110184611D01*
X111567619Y-110185387D01*
X112389372Y-109845845D01*
X113018636Y-109217679D01*
X113359611Y-108396519D01*
X113359614Y-108392619D01*
X137464613Y-108392619D01*
X137804155Y-109214372D01*
X138432321Y-109843636D01*
X139253481Y-110184611D01*
X140142619Y-110185387D01*
X140964372Y-109845845D01*
X141593636Y-109217679D01*
X141934611Y-108396519D01*
X141935387Y-107507381D01*
X141595845Y-106685628D01*
X140967679Y-106056364D01*
X140146519Y-105715389D01*
X139257381Y-105714613D01*
X138435628Y-106054155D01*
X137806364Y-106682321D01*
X137465389Y-107503481D01*
X137464613Y-108392619D01*
X113359614Y-108392619D01*
X113360387Y-107507381D01*
X113020845Y-106685628D01*
X112392679Y-106056364D01*
X111571519Y-105715389D01*
X110682381Y-105714613D01*
X109860628Y-106054155D01*
X109231364Y-106682321D01*
X108890389Y-107503481D01*
X108889613Y-108392619D01*
X108761953Y-108392619D01*
X108660000Y-107880069D01*
X108660000Y-88900000D01*
X112785907Y-88900000D01*
X112898946Y-89468285D01*
X113220853Y-89950054D01*
X113550026Y-90170000D01*
X113220853Y-90389946D01*
X112898946Y-90871715D01*
X112785907Y-91440000D01*
X112898946Y-92008285D01*
X113220853Y-92490054D01*
X113550026Y-92710000D01*
X113220853Y-92929946D01*
X112898946Y-93411715D01*
X112785907Y-93980000D01*
X112898946Y-94548285D01*
X113220853Y-95030054D01*
X113550026Y-95250000D01*
X113220853Y-95469946D01*
X112898946Y-95951715D01*
X112785907Y-96520000D01*
X112898946Y-97088285D01*
X113220853Y-97570054D01*
X113550026Y-97790000D01*
X113220853Y-98009946D01*
X112898946Y-98491715D01*
X112785907Y-99060000D01*
X112898946Y-99628285D01*
X113220853Y-100110054D01*
X113550026Y-100330000D01*
X113220853Y-100549946D01*
X112898946Y-101031715D01*
X112785907Y-101600000D01*
X112898946Y-102168285D01*
X113220853Y-102650054D01*
X113550026Y-102870000D01*
X113220853Y-103089946D01*
X112898946Y-103571715D01*
X112785907Y-104140000D01*
X112898946Y-104708285D01*
X113220853Y-105190054D01*
X113702622Y-105511961D01*
X114270907Y-105625000D01*
X114329093Y-105625000D01*
X114768270Y-105537642D01*
X114635162Y-105858201D01*
X114634838Y-106230167D01*
X114776883Y-106573943D01*
X115039673Y-106837192D01*
X115383201Y-106979838D01*
X115755167Y-106980162D01*
X116098943Y-106838117D01*
X116107074Y-106830000D01*
X127000000Y-106830000D01*
X127300407Y-106770245D01*
X127555079Y-106600079D01*
X129080005Y-105075153D01*
X129090167Y-105075162D01*
X129433943Y-104933117D01*
X129664802Y-104702661D01*
X129739909Y-104815067D01*
X129874847Y-104950005D01*
X129874838Y-104960167D01*
X130016883Y-105303943D01*
X130279673Y-105567192D01*
X130623201Y-105709838D01*
X130995167Y-105710162D01*
X131338943Y-105568117D01*
X131602192Y-105305327D01*
X131744838Y-104961799D01*
X131745162Y-104589833D01*
X131677757Y-104426700D01*
X131988953Y-104298117D01*
X132252202Y-104035327D01*
X132394848Y-103691799D01*
X132394931Y-103595750D01*
X137160000Y-103595750D01*
X137160000Y-104186309D01*
X137256673Y-104419698D01*
X137435301Y-104598327D01*
X137668690Y-104695000D01*
X140049250Y-104695000D01*
X140208000Y-104536250D01*
X140208000Y-103437000D01*
X137318750Y-103437000D01*
X137160000Y-103595750D01*
X132394931Y-103595750D01*
X132395172Y-103319833D01*
X132253127Y-102976057D01*
X131990337Y-102712808D01*
X131646809Y-102570162D01*
X131635320Y-102570152D01*
X131579998Y-102514830D01*
X131579998Y-102433691D01*
X137160000Y-102433691D01*
X137160000Y-103024250D01*
X137318750Y-103183000D01*
X140208000Y-103183000D01*
X140208000Y-102083750D01*
X140049250Y-101925000D01*
X137668690Y-101925000D01*
X137435301Y-102021673D01*
X137256673Y-102200302D01*
X137160000Y-102433691D01*
X131579998Y-102433691D01*
X131579998Y-96820118D01*
X131630167Y-96820162D01*
X131973943Y-96678117D01*
X132237192Y-96415327D01*
X132379838Y-96071799D01*
X132379848Y-96060310D01*
X133344408Y-95095750D01*
X137160000Y-95095750D01*
X137160000Y-95686309D01*
X137256673Y-95919698D01*
X137435301Y-96098327D01*
X137668690Y-96195000D01*
X140049250Y-96195000D01*
X140208000Y-96036250D01*
X140208000Y-94937000D01*
X137318750Y-94937000D01*
X137160000Y-95095750D01*
X133344408Y-95095750D01*
X133905079Y-94535079D01*
X134075245Y-94280406D01*
X134135000Y-93980000D01*
X134135000Y-93933691D01*
X137160000Y-93933691D01*
X137160000Y-94524250D01*
X137318750Y-94683000D01*
X140208000Y-94683000D01*
X140208000Y-93583750D01*
X140049250Y-93425000D01*
X137668690Y-93425000D01*
X137435301Y-93521673D01*
X137256673Y-93700302D01*
X137160000Y-93933691D01*
X134135000Y-93933691D01*
X134135000Y-86360000D01*
X134075245Y-86059594D01*
X133905079Y-85804921D01*
X131595000Y-83494842D01*
X131595000Y-83087506D01*
X131602192Y-83080327D01*
X131744838Y-82736799D01*
X131745162Y-82364833D01*
X131603117Y-82021057D01*
X131502779Y-81920543D01*
X131621431Y-81746890D01*
X131672440Y-81495000D01*
X131672440Y-79817619D01*
X137464613Y-79817619D01*
X137804155Y-80639372D01*
X138432321Y-81268636D01*
X139253481Y-81609611D01*
X140142619Y-81610387D01*
X140964372Y-81270845D01*
X141593636Y-80642679D01*
X141934611Y-79821519D01*
X141935387Y-78932381D01*
X141595845Y-78110628D01*
X140967679Y-77481364D01*
X140146519Y-77140389D01*
X139257381Y-77139613D01*
X138435628Y-77479155D01*
X137806364Y-78107321D01*
X137465389Y-78928481D01*
X137464613Y-79817619D01*
X131672440Y-79817619D01*
X131672440Y-79795000D01*
X131628162Y-79559683D01*
X131489090Y-79343559D01*
X131276890Y-79198569D01*
X131025000Y-79147560D01*
X129325000Y-79147560D01*
X129089683Y-79191838D01*
X128873559Y-79330910D01*
X128728569Y-79543110D01*
X128714914Y-79610541D01*
X128685054Y-79565853D01*
X128203285Y-79243946D01*
X127635000Y-79130907D01*
X127066715Y-79243946D01*
X126584946Y-79565853D01*
X126365000Y-79895026D01*
X126145054Y-79565853D01*
X125663285Y-79243946D01*
X125095000Y-79130907D01*
X124526715Y-79243946D01*
X124044946Y-79565853D01*
X123825000Y-79895026D01*
X123605054Y-79565853D01*
X123123285Y-79243946D01*
X122555000Y-79130907D01*
X121986715Y-79243946D01*
X121504946Y-79565853D01*
X121285000Y-79895026D01*
X121065054Y-79565853D01*
X120583285Y-79243946D01*
X120015000Y-79130907D01*
X119446715Y-79243946D01*
X118964946Y-79565853D01*
X118643039Y-80047622D01*
X118530000Y-80615907D01*
X118530000Y-80674093D01*
X118643039Y-81242378D01*
X118964946Y-81724147D01*
X119446715Y-82046054D01*
X120015000Y-82159093D01*
X120583285Y-82046054D01*
X121065054Y-81724147D01*
X121285000Y-81394974D01*
X121504946Y-81724147D01*
X121986715Y-82046054D01*
X122555000Y-82159093D01*
X123123285Y-82046054D01*
X123605054Y-81724147D01*
X123825000Y-81394974D01*
X124044946Y-81724147D01*
X124526715Y-82046054D01*
X125095000Y-82159093D01*
X125429859Y-82092485D01*
X125429852Y-82100167D01*
X125571897Y-82443943D01*
X125580014Y-82452074D01*
X125580014Y-82550014D01*
X125639769Y-82850421D01*
X125809935Y-83105093D01*
X130025000Y-87320157D01*
X130025000Y-93255716D01*
X129739908Y-93540808D01*
X129569742Y-93795480D01*
X129509987Y-94095886D01*
X129509987Y-94095888D01*
X129509988Y-95134113D01*
X129509988Y-103422599D01*
X129435327Y-103347808D01*
X129091799Y-103205162D01*
X128719833Y-103204838D01*
X128376057Y-103346883D01*
X128112808Y-103609673D01*
X127970162Y-103953201D01*
X127970152Y-103964690D01*
X126674842Y-105260000D01*
X116107506Y-105260000D01*
X116100327Y-105252808D01*
X115756799Y-105110162D01*
X115432718Y-105109880D01*
X115701054Y-104708285D01*
X115814093Y-104140000D01*
X115701054Y-103571715D01*
X115379147Y-103089946D01*
X115049974Y-102870000D01*
X115379147Y-102650054D01*
X115701054Y-102168285D01*
X115774574Y-101798675D01*
X116018201Y-101899838D01*
X116390167Y-101900162D01*
X116668476Y-101785167D01*
X120984838Y-101785167D01*
X121126883Y-102128943D01*
X121389673Y-102392192D01*
X121733201Y-102534838D01*
X122105167Y-102535162D01*
X122448943Y-102393117D01*
X122457074Y-102385000D01*
X123922494Y-102385000D01*
X123929673Y-102392192D01*
X124273201Y-102534838D01*
X124645167Y-102535162D01*
X124988943Y-102393117D01*
X125252192Y-102130327D01*
X125394838Y-101786799D01*
X125395162Y-101414833D01*
X125253117Y-101071057D01*
X124990327Y-100807808D01*
X124646799Y-100665162D01*
X124274833Y-100664838D01*
X123931057Y-100806883D01*
X123922926Y-100815000D01*
X122457506Y-100815000D01*
X122450327Y-100807808D01*
X122106799Y-100665162D01*
X121734833Y-100664838D01*
X121391057Y-100806883D01*
X121127808Y-101069673D01*
X120985162Y-101413201D01*
X120984838Y-101785167D01*
X116668476Y-101785167D01*
X116733943Y-101758117D01*
X116742074Y-101750000D01*
X119288368Y-101750000D01*
X119588775Y-101690245D01*
X119843447Y-101520079D01*
X125620068Y-95743458D01*
X125790234Y-95488785D01*
X125849989Y-95188379D01*
X125849989Y-95152506D01*
X125857181Y-95145327D01*
X125999827Y-94801799D01*
X126000151Y-94429833D01*
X125858106Y-94086057D01*
X125595316Y-93822808D01*
X125251788Y-93680162D01*
X125235011Y-93680147D01*
X126540005Y-92375153D01*
X126550167Y-92375162D01*
X126893943Y-92233117D01*
X127157192Y-91970327D01*
X127299838Y-91626799D01*
X127300162Y-91254833D01*
X127158117Y-90911057D01*
X126895327Y-90647808D01*
X126551799Y-90505162D01*
X126179833Y-90504838D01*
X125836057Y-90646883D01*
X125572808Y-90909673D01*
X125430162Y-91253201D01*
X125430152Y-91264690D01*
X124699977Y-91994865D01*
X124699977Y-90097185D01*
X125074699Y-89722463D01*
X125244865Y-89467791D01*
X125304620Y-89167384D01*
X125304620Y-89027139D01*
X125311812Y-89019960D01*
X125454458Y-88676432D01*
X125454782Y-88304466D01*
X125323885Y-87987671D01*
X125394838Y-87816799D01*
X125395162Y-87444833D01*
X125253117Y-87101057D01*
X124990327Y-86837808D01*
X124646799Y-86695162D01*
X124274833Y-86694838D01*
X123931057Y-86836883D01*
X123894854Y-86873023D01*
X123735330Y-86904755D01*
X123480657Y-87074921D01*
X123480655Y-87074924D01*
X120714911Y-89840667D01*
X120544745Y-90095339D01*
X120544745Y-90095340D01*
X120484990Y-90395746D01*
X120484990Y-95347494D01*
X120477798Y-95354673D01*
X120335152Y-95698201D01*
X120334828Y-96070167D01*
X120476873Y-96413943D01*
X120739663Y-96677192D01*
X120960199Y-96768767D01*
X120088966Y-97640000D01*
X116742506Y-97640000D01*
X116735327Y-97632808D01*
X116391799Y-97490162D01*
X116019833Y-97489838D01*
X115676057Y-97631883D01*
X115412808Y-97894673D01*
X115368027Y-98002516D01*
X115049974Y-97790000D01*
X115379147Y-97570054D01*
X115701054Y-97088285D01*
X115814093Y-96520000D01*
X115701054Y-95951715D01*
X115379147Y-95469946D01*
X115049974Y-95250000D01*
X115379147Y-95030054D01*
X115701054Y-94548285D01*
X115814093Y-93980000D01*
X115701054Y-93411715D01*
X115379147Y-92929946D01*
X115049974Y-92710000D01*
X115379147Y-92490054D01*
X115701054Y-92008285D01*
X115814093Y-91440000D01*
X115701054Y-90871715D01*
X115379147Y-90389946D01*
X115049974Y-90170000D01*
X115379147Y-89950054D01*
X115701054Y-89468285D01*
X115814093Y-88900000D01*
X115701054Y-88331715D01*
X115379147Y-87849946D01*
X115038447Y-87622298D01*
X115181358Y-87555183D01*
X115571645Y-87126924D01*
X115741476Y-86716890D01*
X115620155Y-86487000D01*
X114427000Y-86487000D01*
X114427000Y-86507000D01*
X114173000Y-86507000D01*
X114173000Y-86487000D01*
X112979845Y-86487000D01*
X112858524Y-86716890D01*
X113028355Y-87126924D01*
X113418642Y-87555183D01*
X113561553Y-87622298D01*
X113220853Y-87849946D01*
X112898946Y-88331715D01*
X112785907Y-88900000D01*
X108660000Y-88900000D01*
X108660000Y-82970000D01*
X112802560Y-82970000D01*
X112802560Y-84670000D01*
X112846838Y-84905317D01*
X112985910Y-85121441D01*
X113198110Y-85266431D01*
X113306107Y-85288301D01*
X113028355Y-85593076D01*
X112858524Y-86003110D01*
X112979845Y-86233000D01*
X114173000Y-86233000D01*
X114173000Y-86213000D01*
X114427000Y-86213000D01*
X114427000Y-86233000D01*
X115620155Y-86233000D01*
X115741476Y-86003110D01*
X115571645Y-85593076D01*
X115295499Y-85290063D01*
X115385317Y-85273162D01*
X115601441Y-85134090D01*
X115746431Y-84921890D01*
X115797440Y-84670000D01*
X115797440Y-82970000D01*
X115753162Y-82734683D01*
X115614090Y-82518559D01*
X115401890Y-82373569D01*
X115150000Y-82322560D01*
X113450000Y-82322560D01*
X113214683Y-82366838D01*
X112998559Y-82505910D01*
X112853569Y-82718110D01*
X112802560Y-82970000D01*
X108660000Y-82970000D01*
X108660000Y-79817619D01*
X108889613Y-79817619D01*
X109229155Y-80639372D01*
X109857321Y-81268636D01*
X110678481Y-81609611D01*
X111567619Y-81610387D01*
X112389372Y-81270845D01*
X113018636Y-80642679D01*
X113359611Y-79821519D01*
X113360387Y-78932381D01*
X113020845Y-78110628D01*
X112392679Y-77481364D01*
X111571519Y-77140389D01*
X110682381Y-77139613D01*
X109860628Y-77479155D01*
X109231364Y-78107321D01*
X108890389Y-78928481D01*
X108889613Y-79817619D01*
X108660000Y-79817619D01*
X108660000Y-79444931D01*
X108860488Y-78437007D01*
X109391817Y-77641817D01*
X109676184Y-77451809D01*
X111145610Y-76962000D01*
X139679390Y-76962000D01*
X141148816Y-77451809D01*
M02*
