M48
;DRILL file {KiCad 4.0.7} date 05/08/18 00:10:04
;FORMAT={2:4/ absolute / inch / suppress leading zeros}
FMAT,2
INCH,TZ
T1C0.016
T2C0.024
T3C0.039
T4C0.126
%
G90
G05
M72
T1
X43250Y-34500
X43250Y-37750
X43250Y-40500
X45500Y-41750
X45697Y-39191
X45750Y-38750
X45750Y-39750
X46000Y-35000
X46000Y-37000
X46250Y-34500
X47000Y-36250
X47744Y-37750
X48000Y-37000
X48000Y-40000
X48750Y-35000
X49000Y-34500
X49000Y-40000
X49023Y-34838
X49238Y-37250
X49250Y-42750
X49500Y-35500
X49750Y-32250
X49887Y-36132
X50192Y-32580
X50750Y-32500
X50750Y-41000
X51000Y-42750
X51250Y-34750
X51500Y-32500
X51500Y-41250
X51750Y-37250
X51750Y-37750
X51756Y-40750
X52750Y-31500
X55250Y-33500
T2
X54250Y-41500
T3
X45000Y-33000
X45000Y-34000
X45000Y-35000
X45000Y-36000
X45000Y-37000
X45000Y-38000
X45000Y-39000
X45000Y-40000
X45000Y-41000
X47250Y-31750
X48250Y-31750
X49250Y-31750
X50250Y-31750
X51250Y-31750
T4
X43750Y-31250
X43750Y-42500
X55000Y-31250
X55000Y-42500
T0
M30
